<svg width="20" height="18" viewBox="0 0 20 18" fill="none" xmlns="http://www.w3.org/2000/svg">
<path d="M8.6715 0.0222981C3.88979 0.0222981 0 3.5231 0 7.82664C0 12.1302 3.88979 15.631 8.6715 15.631C10.1333 15.631 11.5703 15.3188 12.7843 14.7168C12.8815 14.8221 12.9893 14.9191 13.1063 15.0066L15.5839 17.2365C15.8127 17.4681 16.0917 17.6553 16.4037 17.7864C16.7158 17.9175 17.0543 17.9899 17.3985 17.999C17.7428 18.0081 18.0854 17.9538 18.4055 17.8394C18.7256 17.7251 19.0163 17.553 19.2598 17.3338C19.5033 17.1147 19.6945 16.853 19.8216 16.565C19.9487 16.2769 20.009 15.9685 19.9989 15.6587C19.9888 15.3489 19.9084 15.0442 19.7627 14.7633C19.617 14.4825 19.409 14.2314 19.1516 14.0255L16.674 11.7957C16.5534 11.6871 16.4205 11.5899 16.2776 11.5058C16.9466 10.4132 17.3678 9.14223 17.3678 7.80434C17.3678 3.50081 13.478 0 8.69627 0L8.6715 0.0222981ZM8.6715 2.25211C12.1153 2.25211 14.8654 4.7272 14.8654 7.82664C14.8654 9.29832 14.2708 10.6585 13.2302 11.6619C13.2054 11.6842 13.1807 11.7065 13.1559 11.7288C13.0389 11.8163 12.9311 11.9134 12.8338 12.0187C11.7437 12.9106 10.2571 13.4235 8.64672 13.4235C5.2029 13.4235 2.45279 10.9484 2.45279 7.84894C2.45279 4.7495 5.2029 2.27441 8.64672 2.27441L8.6715 2.25211Z" fill="#BC1C43"/>
</svg>
