<?xml version="1.0" encoding="UTF-8"?>
<svg id="Layer_1" data-name="Layer 1" xmlns="http://www.w3.org/2000/svg" xmlns:xlink="http://www.w3.org/1999/xlink" viewBox="0 0 2487.64 928.75">
  <defs>
    <style>
      .cls-1 {
        fill: #096b30;
      }

      .cls-1, .cls-2, .cls-3, .cls-4, .cls-5, .cls-6, .cls-7, .cls-8, .cls-9, .cls-10, .cls-11, .cls-12, .cls-13, .cls-14, .cls-15, .cls-16 {
        stroke-width: 0px;
      }

      .cls-2 {
        fill: url(#linear-gradient);
      }

      .cls-3, .cls-9 {
        fill: #f9d500;
      }

      .cls-17, .cls-18, .cls-9, .cls-10, .cls-12 {
        fill-rule: evenodd;
      }

      .cls-17, .cls-19 {
        fill: #f8be00;
        stroke: #e10e18;
        stroke-linecap: round;
        stroke-linejoin: round;
      }

      .cls-4 {
        fill: #3f5b3c;
      }

      .cls-18 {
        fill: #00663a;
        stroke: #00663a;
      }

      .cls-5 {
        fill: #f56978;
      }

      .cls-20 {
        fill: gray;
        stroke: #e6e6e6;
        stroke-width: .63px;
      }

      .cls-6 {
        fill: #2b255e;
      }
     .cls-10{
        fill: #fFF;
      }
      .cls-7 {
        fill: #f88e9f;
      }

      .cls-8 {
        fill: #f88e9f;
      }

      .cls-11 {
        fill: #2a2667;
      }

      .cls-12, .cls-14 {
        fill: #004f9e;
      }

      .cls-13 {
        fill: #f88e9f;
      }

      .cls-21 {
        fill: none;
        stroke: #f9d500;
        stroke-width: 1.9px;
      }

      .cls-15 {
        fill: #1d1d1b;
      }

      .cls-16 {
        fill: #fde445;
      }
    </style>
    <linearGradient id="linear-gradient" x1="707.32" y1="796.75" x2="267.27" y2="356.7" gradientUnits="userSpaceOnUse">
      <stop offset="0" stop-color="#fff"/>
      <stop offset="1" stop-color="#fff" stop-opacity="0"/>
    </linearGradient>
  </defs>
  <g>
    <g>
      <g>
        <g>
          <path class="cls-3" d="m635.87,494.35c0,175.99-107.92,318.65-241.05,318.65s-241.05-142.67-241.05-318.65,107.92-318.65,241.05-318.65,241.05,142.67,241.05,318.65Z"/>
          <ellipse class="cls-4" cx="394.81" cy="494.35" rx="235.83" ry="311.76"/>
          <path class="cls-6" d="m561.19,494.35c0,130.66-74.49,236.59-166.38,236.59s-166.37-105.93-166.37-236.59,74.49-236.59,166.37-236.59,166.38,105.93,166.38,236.59Z"/>
          <path class="cls-17" d="m463.58,299.47c-11.73,12.29-19.84,19.19-25.2,47.85-3.08,24.69-13.57,16.5-12.4,25.03l1.84,13.47,7.48,2.27c9.37-10.73,11.75-23.22,12.01-37.59.56-24.11,2.73-27.94,16.28-51.02Zm23.97,23.11c-11.3,15.57-21.81,19.04-30.13,48.51-5.47,20.58-14.24,31.96-15.92,33.62l-29.89,29.5,17.84,7.51,14.68-11.15c5.29-5.9,18.29-30.02,21.26-48.22,6.59-42.36,5.7-23.51,22.17-59.76Zm16.21,33.4c-17.09,8.02-19.71,16.8-25,25.01-4.29,8.42-6.84,18.16-10.07,26.32-8.42,18.6-21.42,25.6-27.04,29.73-6.39,4.69-10.07,4.39-15.9,6.41-.96.33,4.23,2.43,5.97,3.72l11.34,8.35c15.44-9.21,32.68-28.16,37.39-51.78,5.27-21.23,9.55-38.04,23.31-47.75Zm-10.17,47.11c-3.82,8.83-6.05,15.49-10.19,22.2-10.67,16.19-38.48,28.93-37.48,30.56l8.47,13.91c6.22-7.98,13.61-12.89,21.33-19.96,9.73-8.9,14.78-15.31,17.12-21.73,4.16-9.52,4.84-16.8,8.11-25.48,3.56-9.44,4.27-15.38,19.15-22.4-8.5,1.96-17.15,3.55-26.51,22.9Zm-67.65-127.36c-2.93,4.89-4.77,12.46-1.66,27.51,2.12,10.31-.38,18.02-1.03,19.25-4.76,9.12-6.34,12.04-8.84,15.93l-8.18-10.63c5.02-8.56,12.72-5.82,13.34-21.96-.57-11.06,1.06-26.08,6.36-30.09Zm105.09,133.73c-4.22,1.81-9.42,2.05-15.7,14.81-4.64,7.85-5.92,11-17.63,18.32-27.11,11.92-29.2,12.54-41.74,26.36,3.97,5.87,5.73,12.1,7.58,9.97,8.02-9.22,15.85-12.17,32.59-21.41,3.67-2.03,15.51-8.9,21.34-22.29,7.31-16,4.32-18.91,13.57-25.76Zm9.9,38.03c-8.19-.54-15.76,2.44-22.09,8.61-5.49,5.34-13.15,6.7-19.66,7.45-18.51,2.84-23.75,7.17-35.63,15.44,2.99,3.41,3.98,7.52,4.54,9.77,8.62-3.3,13.42-8.8,27.83-10.02,17.86-5.11,19.54-9.42,25.24-15.35,6.02-6.25,5.59-11.13,19.78-15.9Zm.94,26.57c-14.15,3.43-15.19,6.66-20.46,8.51-6.24,2.19-11.87.23-18.35-.45-8.42-1.89-19.22-1.6-34.69,8.52,2.99,3.41,2.34,8.4,6.91,6.64,9.79-3.78,12.13-1.44,27.11-1.87,29.7-.11,25.14-13.6,39.48-21.34Zm2.32,23.71c-31.31,8.1-22.98,9.1-38.5,3.44-13.08-6.08-18.42-8.14-35.58-2.3,2.02,4.15,2.43,10.87,7.25,10.25,10.56-1.36,9.94.16,24.3,4.33,11,.68,15.83.63,23.58-2.45,7.6-3.02,10.1-7.9,18.95-13.28Zm1.17,21.83c-31.85,4.53-23.3,6.53-38.2-2.44-13.32-6.53-18.46-9.62-35.69-6.88,1.5,4.41,1.1,11.38,5.94,11.19,10.46-.4,9.89-.48,23.76,6.12,9.83,3.3,15.48,4.52,21.22,2.54,8.36-2.88,16.09-6.37,22.97-10.53Zm-4.29,21.44c-5.53-.41-27.51-.69-35.43-7.64-10.68-10.37-16.24-12.74-34.45-11.45.97,4.57-.25,11.44,4.58,11.92,10.42,1.04,9.67.65,22.65,9.1,21.01,7.95,26.35,1.67,42.65-1.92Zm-3.67,34.18c-14.67-22.59-24.54-17.71-34.67-24.07-8.51-12.23-15.52-16.72-27.4-16.71.42,4.68-2.37,10.57-1.56,13.71,10.02,2.43,16.5,11.25,26.33,14.64,23.72,2.64,24.15,1.64,37.3,12.44Zm-10.07,30.51c-6.94-5.34-2.87-11.44-11.24-23.24-4.68-6.61-12.64-6.55-17.26-11.92-5.8-13.78-11.31-17.27-24.9-22.93-.58,4.65-9.13,11.2-4.56,12.89,9.33,3.45,12.86,7.81,19.68,16.47,6.33,5.69,16.8,7.98,20.61,10.73,8.39,6.04,4.92,13.31,17.67,18Zm-9.15,27.5c-6.21-7.2-6.14-16.17-8.85-23.75-3.05-8.53-10.01-12.58-16.39-16.53-5.55-14.36-10.5-28.28-24.38-33.68l-7.37,9.45c-.6.76,4.67.82,9.18,6.56,4.33,5.5,8.41,14.37,15.3,22.48,5.82,5.33,8.43,4.35,17.5,12.52,2.48,6.15,4.93,15.47,10.55,20.22,1.29,1.1,2.77,2.03,4.46,2.74Zm-33.29-17.96c-9.66-15.18-2.85-39.36-24-46.03-2.62,3.75-8.87,5.41-8.83,9.07,9.52,2.44,15.03,14.13,20.74,28.3,4.38,13.61,8.76,14.32,15.87,22.92,3.79,4.59,5.71,8.68,6.21,13.86,3.2-9.48-7.83-24.7-10-28.12Zm-4.99,22.03c-6.55-9-12-23.95-12.39-36.59-.34-12.41-7.93-23.19-18.53-22.55l-8.19,8.53c9.36,3.18,15.39,10.91,18.31,21.13,3.34,11.66,9.26,21.35,20.79,29.48Zm-22.27-28.59c-1.14-13.1-10.54-20.6-15.81-21.12-5.23-1.19-16.99,2.56-16.97,12.97,8.44-1.84,20.41-3.99,27.22,17.48,6.51,12.48,18.99,20.18,18.34,19.54-3.14-3.07-12.1-14.44-12.78-28.87Z"/>
          <path class="cls-17" d="m329.48,298.22c9.3,22.08,21.38,29.87,25.01,46.78,2.05,25.92,11.76,22.61,11.74,24.06l-.21,16.76-6.16,3.09c-9.44-9.8-12.26-19.64-14.37-38.44-4.12-35.5-11.04-23.66-16.01-52.24Zm-22.9,21.22c5.23,20.08,20.12,22.46,30.78,54.64,5.97,22.55,12.68,28.5,14.98,30.63l33.5,31.08-19.41,7.27-16.1-11.92-8.54-11.72c-3.42-8.37-9.98-28-11.5-40.37-10.82-37.49-22.22-37.34-23.71-59.62Zm-18.12,34.18c9.32,5.54,20.9,10.74,27.81,26.08,3.65,8.11,7.44,18.48,10.37,27.29,7.24,19.88,19.47,26.43,25.56,30.05,6.76,4.03,10.07,4.39,15.9,6.41.96.33-4.23,2.43-5.97,3.72l-11.35,8.35c-15.26-9.03-31.04-24.78-35.6-51.14-5.64-27.45-12.86-36.4-26.71-50.75Zm11.79,49.46c3.82,8.83,6.05,15.49,10.19,22.2,10.67,16.19,38.48,28.93,37.49,30.56l-8.48,13.91c-6.22-7.98-13.6-12.89-21.33-19.96-9.73-8.9-14.78-15.31-17.12-21.73-4.15-9.52-4.84-16.8-8.11-25.48-3.56-9.44-3.93-15.38-18.82-22.4,8.5,1.96,16.82,3.55,26.18,22.9Zm68.38-127.42c3.87,10.99,4.03,12.51.93,27.56-2.13,10.31.38,18.02,1.02,19.25,4.77,9.12,8.08,7.58,8.23,12.49l8.79-7.19c-5.02-8.56-12.73-5.82-13.34-21.96.57-11.06,4.62-17.49-5.62-30.15Zm-105.56,135.81c6.09,2.25,7.37,1.52,15.43,12.79,4.64,7.85,5.92,11,17.63,18.32,27.12,11.92,29.21,12.54,41.75,26.36-3.96,5.87-5.73,12.1-7.58,9.97-8.02-9.22-15.85-12.17-32.59-21.41-3.67-2.03-15.51-8.9-21.34-22.29-6.95-15.07-4.05-16.89-13.3-23.74Zm-10.88,37.79c6.31-.8,17.64,3.66,23.97,8.09,6.2,4.33,12.92,6.19,19.43,6.94,18.51,2.84,22.81,6.41,34.69,14.68-2.99,3.41-3.98,7.52-4.53,9.77-8.62-3.3-13.43-8.8-27.83-10.02-15.87-4.36-17.01-6.29-25.95-14.59-6.18-5.74-8.41-11.3-19.78-14.88Zm-.94,21.74c16.3,4.8,15.71,8.72,23.75,10.04,5.73.94,9.28,2.48,15.76,2.34,7.92.28,19.06-2.14,34.69,7.25-2.99,3.41-2.34,8.4-6.91,6.64-9.79-3.78-12.13-1.44-27.11-1.87-29.93-4.5-33.57-20.23-40.18-24.39Zm-5.37,26.25c27.26,6.49,26.4,10.72,42.26,3.95,13.09-6.08,18.42-8.14,35.58-2.3-2.02,4.15-2.43,10.87-7.25,10.25-10.56-1.36-9.94.16-24.3,4.33-11,.68-15.83.63-23.58-2.45-7.6-3.02-15.03-7.13-22.71-13.79Zm3.29,24.12c31.85,4.53,22.59,4.75,37.5-4.22,13.32-6.53,18.46-9.62,35.68-6.88-1.5,4.41-1.1,11.38-5.94,11.19-10.46-.4-9.89-.48-23.75,6.12-9.83,3.3-15.33,3.9-21.22,2.54-8.87-2.06-11.9-3.13-22.27-8.75Zm.06,19.15c25.03,3.14,31.04-.18,38.96-7.14,10.68-10.37,16.24-12.74,34.45-11.45-.97,4.57.25,11.44-4.58,11.92-10.42,1.04-9.67.65-22.65,9.1-21.01,7.95-37.39,2.94-46.17-2.43Zm6.68,35.3c14.67-22.58,25.05-18.33,35.18-24.69,8.51-12.23,15.52-16.72,27.4-16.71-.42,4.68,2.37,10.57,1.56,13.71-10.02,2.43-16.5,11.25-26.33,14.64-23.71,2.64-24.65,2.25-37.8,13.05Zm10.07,30.44c6.94-5.34,3.37-11.99,11.75-23.78,4.68-6.61,12.63-6.55,17.26-11.92,5.79-13.78,11.32-17.27,24.9-22.93.59,4.65,9.13,11.2,4.55,12.89-9.32,3.45-12.86,7.81-19.68,16.47-6.33,5.69-16.79,7.98-20.61,10.73-8.39,6.04-5.43,13.86-18.18,18.55Zm9.65,26.96c6.21-7.2,6.14-16.17,8.85-23.75,3.05-8.53,10.01-12.58,16.39-16.53,5.56-14.36,10.5-28.28,24.38-33.68l7.37,9.45c.59.76-4.67.82-9.18,6.56-4.33,5.5-8.41,14.37-15.3,22.48-5.82,5.33-8.43,4.35-17.5,12.52-2.48,6.15-4.93,15.47-10.55,20.22-1.3,1.1-2.78,2.03-4.46,2.74Zm33.29-17.96c9.66-15.18,2.85-39.36,24-46.03,2.62,3.75,8.86,5.41,8.82,9.07-9.52,2.44-15.02,14.13-20.74,28.3-4.39,13.61-8.76,14.32-15.88,22.92-3.79,4.59-5.7,8.68-6.21,13.86-3.2-9.48,7.83-24.7,10-28.12Zm4.99,22.03c6.55-9,12-23.95,12.39-36.59.33-12.41,7.93-23.19,18.53-22.55l8.19,8.53c-9.36,3.18-15.39,10.91-18.31,21.13-3.34,11.66-9.26,21.35-20.79,29.48Zm22.27-28.59c1.14-13.1,10.54-20.6,15.81-21.12,5.23-1.19,16.99,2.56,16.97,12.97-8.45-1.84-20.41-3.99-27.23,17.48-6.51,12.48-18.99,20.18-18.34,19.54,3.14-3.07,12.1-14.44,12.78-28.87Z"/>
          <g>
            <path class="cls-10" d="m337.54,623.11v-7.68l-3.18-1.57.2-8.74c3.89-12.04,14.05-19.34,28.13-17.66l64.15.61c13.6-5.44,29.7,10.44,28.12,17.05v8.3l-3.75,1.92v7.41l40.33,12.51,24.51,22.5c-33.04,47.64-75.5,74.8-121.38,74.34-45.34-.46-86.68-26.11-117.04-69.59l20.4-27.25,39.51-12.14Z"/>
            <path class="cls-12" d="m426.67,586.6c-.36,0-63.97-.61-63.97-.61h.15c-14.24-1.69-25.32,5.28-29.64,18.66l-.07.21-.23,9.9s2.3,1.14,3.2,1.58v5.66c-1.93.59-38.93,11.96-38.93,11.96l-21.33,28.48.62.89c31.29,44.82,73.27,69.75,118.18,70.2,22.88.23,45.17-6.27,66.25-19.33,20.63-12.78,39.57-31.49,56.3-55.62l.75-1.07-25.7-23.59s-37.7-11.69-39.62-12.29v-5.41c.98-.5,3.75-1.91,3.75-1.91v-9.21l-.04.35c.8-3.34-1.77-8.3-6.54-12.63-5.67-5.15-14.67-9.42-23.13-6.24Zm.68,2.84c7.36-2.95,15.46.96,20.57,5.61,3.88,3.52,5.72,7.07,5.72,9.11,0,.23-.02.43-.07.62l-.04.17v7.56c-.99.5-3.75,1.92-3.75,1.92v9.41s40.45,12.55,41.05,12.73c.44.41,21.52,19.75,23.3,21.39-16.32,23.27-34.7,41.37-54.69,53.75-20.63,12.78-42.42,19.15-64.76,18.92-43.69-.45-84.58-24.64-115.26-68.12,1.23-1.64,18.93-25.27,19.46-25.98.86-.26,40.09-12.32,40.09-12.32v-9.7s-2.25-1.12-3.16-1.56c.03-1.46.16-7.08.17-7.52,3.91-11.85,13.81-18.02,26.55-16.5h.07s64.5.62,64.5.62l.25-.1Z"/>
            <path class="cls-14" d="m421.95,617.96h-56.29c-.51-.22-30.6-12.92-30.6-12.92l-1.07,2.72,31.11,13.14h57.38l32.95-13.15-1.03-2.74s-31.97,12.75-32.46,12.95Z"/>
            <path class="cls-14" d="m421.93,626.11c-.58,0-55.69-.23-56.25-.23-.52-.23-30.59-13.51-30.59-13.51l-1.12,2.7,31.12,13.74,57.41.23,32.98-14.45-1.11-2.71s-31.91,13.99-32.43,14.22Z"/>
            <path class="cls-14" d="m336.08,614.75v10.56l29.02,12.44h57.43l29.23-13.68-1.18-2.68s-28.12,13.16-28.67,13.42h-56.24c-.5-.21-25.12-10.76-26.74-11.46v-8.6h-2.85Z"/>
            <path class="cls-14" d="m446.53,624.35v27.67s9.68,5.84,10.91,6.58v7.98c-1.41.79-30.15,16.81-30.76,17.15h-60.94c-.61-.34-30.76-17.1-32.18-17.89v-5.27c1.31-.67,8.63-4.37,8.63-4.37v-30.29h-2.84v28.46c-1.31.67-8.63,4.37-8.63,4.37v8.86l34.31,19.08h62.38l32.89-18.34v-11.41s-9.68-5.84-10.91-6.58v-25.99h-2.84Z"/>
            <path class="cls-14" d="m426.69,673.41h-61.01c-.54-.25-32.97-15.1-32.97-15.1l-1.15,2.68,33.52,15.35h62.32l32.13-17.57-1.33-2.6s-30.9,16.89-31.51,17.23Z"/>
            <path class="cls-14" d="m419.19,665.26h-49.78c-.49-.2-28.12-11.32-28.12-11.32l-1.03,2.74,28.61,11.52h51.02l28.73-15.68-1.33-2.59s-27.5,15-28.11,15.34Z"/>
            <polygon class="cls-14" points="367.05 685.21 363.72 685.21 363.72 674.49 367.47 666.34 367.47 636.28 370.81 636.28 370.81 667.11 367.05 675.27 367.05 685.21"/>
            <path class="cls-14" d="m418.12,636.28v31.03s6.8,7.39,7.51,8.15v9.75h2.85v-10.92s-6.81-7.39-7.51-8.15v-29.86h-2.84Z"/>
            <rect class="cls-14" x="363.72" y="619.42" width="3.34" height="16.86"/>
            <rect class="cls-14" x="420.55" y="619.42" width="3.34" height="16.86"/>
            <path class="cls-14" d="m398.47,599.31l-9.39.08-.22,4.47,5.44,8.98,5.53-8.92.11-4.63h-1.47Zm-1.45,2.95c0,.38-.01.57-.02.76-.27.43-1.56,2.52-2.68,4.32-1.08-1.78-2.29-3.79-2.58-4.26.01-.23.02-.4.04-.79,1.45-.01,3.67-.03,5.23-.04Z"/>
            <rect class="cls-14" x="317.27" y="702.71" width="156.19" height="3.44"/>
            <rect class="cls-14" x="333.99" y="714.48" width="120.67" height="3.44"/>
          </g>
          <path class="cls-11" d="m480.2,518.94c0,46.59-37.77,84.36-84.36,84.36s-84.36-37.77-84.36-84.36,37.77-84.36,84.36-84.36,84.36,37.77,84.36,84.36Z"/>
          <path class="cls-1" d="m476.99,518.94c0,44.82-36.33,81.15-81.15,81.15s-81.15-36.33-81.15-81.15,36.33-81.15,81.15-81.15,81.15,36.33,81.15,81.15Z"/>
          <g>
            <path class="cls-3" d="m383.64,445.97c-.2-.07-.39-.15-.59-.22l-.05-.02h-.04c-4.29-1.19-10-.11-13.9,2.62l-2.95,2.07,3.58.42c.84.1,4.53,1.98,6.61,5.43l.02.03.02.03c2.3,3.36,4.91,4.66,7.73,3.85,2.19-.58,3.58-2.09,3.68-4.02.1-1.81-1-3.52-2.66-4.16l-.98,2.57c.54.21.93.83.9,1.45-.04.7-.63,1.24-1.66,1.52-1.04.3-2.63.32-4.74-2.75l.04.07c-1.52-2.51-3.75-4.38-5.66-5.51,2.95-1.28,6.49-1.71,9.21-.97,1.62.57,3.59,1.37,4.58,2.49l2.26,2.56.14-3.41c0-.09,0-.17,0-.26,0-.61-.11-1.21-.28-1.78,4.78,2.64,9.41,9.86,9.59,16.06l2.75-.08c-.24-8.46-7.89-19.57-15.68-19.76l-4.94-.12s1.8,1.14,3.01,1.91Z"/>
            <path class="cls-3" d="m360.58,451.97l-4.68,1.57s2.05.45,3.45.76c-.2,0-.4,0-.59,0h-.09c-4.43.36-9.43,3.34-12.16,7.24l-2.07,2.95,3.51-.82c.82-.2,4.94.31,8.07,2.83l.03.03.03.02c3.32,2.37,6.2,2.69,8.58.97,1.86-1.3,2.65-3.19,2.08-5.04-.53-1.73-2.14-2.97-3.92-3l-.05,2.75c.59,0,1.16.46,1.34,1.05.21.68-.17,1.38-1.04,2-.87.63-2.36,1.2-5.39-.97l.06.05c-2.29-1.84-5.04-2.84-7.22-3.25,2.34-2.22,5.53-3.83,8.34-4.06,1.72-.02,3.84.06,5.15.77l3,1.63-1.04-3.26c-.21-.65-.54-1.24-.93-1.78,5.4.84,12.19,6,14.48,11.76l2.55-1.01c-3.13-7.87-14.11-15.69-21.49-13.21Z"/>
            <path class="cls-3" d="m339.76,467.84l-3.86,3.08s2.1-.28,3.52-.46c-.19.07-.39.14-.58.21l-.05.02-.04.02c-4.04,1.85-7.72,6.36-8.95,10.96l-.93,3.48,3.01-1.97c.7-.46,4.74-1.4,8.55-.1h.04s.04.02.04.02c3.93,1.09,6.75.41,8.4-2.02,1.3-1.86,1.4-3.9.23-5.44-1.09-1.45-3.03-2.06-4.71-1.48l.89,2.6c.55-.19,1.25.04,1.62.53.42.56.32,1.36-.3,2.24-.6.89-1.8,1.93-5.4.93l.07.02c-2.79-.95-5.71-.93-7.9-.56,1.44-2.89,3.89-5.5,6.46-6.69,1.61-.6,3.62-1.26,5.11-1.04l3.38.51-2.09-2.7c-.43-.55-.96-.99-1.52-1.37,5.36-1.06,13.54,1.48,17.67,6.12l2.05-1.83c-5.63-6.33-18.63-9.92-24.71-5.06Z"/>
            <path class="cls-3" d="m325.63,489.87l-2.57,4.22s1.89-.99,3.16-1.65c-.16.13-.33.26-.48.39l-.04.03-.03.03c-2.88,2.84-4.72,7.64-4.72,12.04,0,.44.02.88.06,1.31l.32,3.59,2.16-2.89c.5-.68,3.98-2.93,8-3.02h.08c4.06-.31,6.49-1.92,7.2-4.77.59-2.19-.02-4.15-1.65-5.2-1.52-.99-3.55-.9-4.93.23l1.73,2.13c.45-.37,1.19-.39,1.7-.05.59.38.76,1.16.49,2.2-.26,1.04-1.03,2.44-4.75,2.72h.08c-2.94.06-5.69,1.06-7.63,2.15.37-3.2,1.78-6.48,3.78-8.47,1.3-1.12,2.98-2.43,4.44-2.72l3.35-.68-2.88-1.83c-.59-.37-1.23-.61-1.89-.78,4.68-2.82,13.22-3.22,18.68-.28l1.3-2.42c-7.46-4.02-20.89-2.95-24.95,3.69Z"/>
            <path class="cls-3" d="m319.88,515.41l-.98,4.84s1.44-1.58,2.41-2.63c-.1.18-.22.37-.32.54l-.02.04-.02.04c-.92,1.94-1.38,4.31-1.38,6.71,0,2.58.52,5.2,1.56,7.43l1.52,3.27,1.04-3.45c.24-.8,2.74-4.12,6.49-5.57h.04s.04-.03.04-.03c3.71-1.69,5.44-4.02,5.13-6.95-.19-2.26-1.44-3.89-3.32-4.32-1.77-.41-3.64.37-4.56,1.89l2.35,1.42c.3-.5.98-.77,1.58-.63.69.16,1.11.83,1.21,1.9.11,1.07-.14,2.64-3.53,4.19l.07-.03c-2.74,1.06-4.98,2.93-6.42,4.62-.29-1.21-.45-2.48-.45-3.75,0-1.99.37-3.93,1.1-5.5.84-1.49,1.97-3.3,3.25-4.08l2.91-1.78-3.34-.73c-.69-.15-1.38-.15-2.06-.08,3.43-4.26,11.34-7.56,17.48-6.67l.4-2.72c-8.38-1.23-20.64,4.38-22.18,12.01Z"/>
            <path class="cls-3" d="m323.21,541.37l.74,4.88s.82-1.97,1.37-3.29c-.04.2-.09.41-.12.62v.05s-.01.05-.01.05c-.04.38-.05.77-.05,1.16,0,4.19,1.99,9,5.07,12.07l2.55,2.54-.21-3.6c-.05-.84,1.16-4.8,4.2-7.45l.03-.03.03-.03c2.9-2.85,3.73-5.64,2.44-8.28-.96-2.06-2.68-3.16-4.6-2.92-1.8.22-3.3,1.59-3.64,3.34l2.7.52c.11-.57.66-1.06,1.27-1.13.7-.09,1.34.4,1.79,1.37.47.97.78,2.53-1.89,5.14l.06-.05c-2.21,1.93-3.67,4.46-4.46,6.54-1.6-2.41-2.59-5.41-2.59-8.04,0-.3.01-.59.04-.88.28-1.69.72-3.77,1.66-4.95l2.13-2.68-3.39.46c-.7.09-1.35.34-1.96.64,1.76-5.18,8.07-10.99,14.15-12.25l-.56-2.69c-8.3,1.71-17.9,11.17-16.74,18.87Z"/>
            <path class="cls-3" d="m335.22,564.63l2.36,4.34s.1-2.15.16-3.58c.04.21.06.43.1.63v.05s.02.05.02.05c1.12,4.3,4.92,8.71,9.24,10.72l3.27,1.52-1.42-3.31c-.33-.77-.55-4.91,1.39-8.43l.02-.03.02-.03c1.76-3.67,1.58-6.58-.54-8.62-1.6-1.61-3.6-2.05-5.32-1.17-1.62.82-2.55,2.62-2.27,4.38l2.71-.43c-.09-.57.25-1.22.8-1.5.63-.32,1.39-.08,2.15.68.77.75,1.59,2.11-.02,5.47l.04-.07c-1.42,2.58-1.92,5.45-1.94,7.68-2.59-1.92-4.73-4.77-5.45-7.5-.2-1.04-.38-2.25-.38-3.36,0-.68.07-1.32.25-1.85l1.09-3.24-3.03,1.59c-.62.32-1.15.77-1.62,1.27,0-.08-.03-.15-.03-.23,0-5.44,3.92-12.89,9.12-16.11l-1.44-2.34c-7.21,4.45-13,16.62-9.28,23.45Z"/>
            <path class="cls-3" d="m354.47,582.38l3.7,3.27s-.64-2.03-1.07-3.4c.11.18.21.37.31.55l.03.04.03.04c2.52,3.66,7.6,6.5,12.34,6.91l3.59.31-2.47-2.62c-.58-.61-2.2-4.43-1.58-8.4v-.04s.01-.04.01-.04c.39-4.06-.77-6.72-3.45-7.92-2.05-.96-4.08-.69-5.4.72-1.24,1.33-1.5,3.34-.64,4.9l2.41-1.33c-.28-.51-.18-1.24.24-1.69.48-.51,1.28-.55,2.25-.09.98.44,2.22,1.44,1.86,5.15v-.08c-.11.76-.16,1.52-.16,2.27,0,2.1.43,4.06.97,5.61-3.09-.91-6.08-2.87-7.69-5.19-.87-1.48-1.86-3.35-1.9-4.85l-.09-3.41-2.3,2.52c-.47.52-.83,1.11-1.1,1.73-.64-1.66-.97-3.67-.97-5.81,0-4.43,1.35-9.36,3.94-12.64l-2.16-1.71c-5.26,6.65-6.53,20.07-.7,25.21Z"/>
            <path class="cls-3" d="m378.62,592.48l4.6,1.8s-1.3-1.7-2.17-2.83c.16.14.32.28.48.41l.04.03.04.03c3.63,2.58,9.37,3.51,13.97,2.28l3.48-.93-3.22-1.62c-.75-.38-3.58-3.41-4.35-7.36v-.04s-.02-.03-.02-.03c-1.01-3.95-3.02-6.06-5.95-6.26-2.26-.2-4.07.74-4.83,2.52-.71,1.67-.27,3.65,1.07,4.82l1.81-2.07c-.44-.38-.59-1.1-.35-1.67.28-.65,1.02-.95,2.08-.86,1.08.08,2.58.59,3.51,4.2l-.02-.08c.57,2.88,2.02,5.4,3.43,7.12-3.22.2-6.68-.61-8.99-2.24-1.33-1.1-2.9-2.51-3.45-3.91l-1.25-3.17-1.3,3.16c-.27.65-.39,1.34-.44,2.02-2.61-2.97-4.31-8.18-4.31-13.07,0-1.86.25-3.68.79-5.31l-2.61-.86c-2.66,8.04.72,21.09,7.97,23.93Z"/>
            <path class="cls-3" d="m389.1,573.94c.25,8.47,7.89,19.58,15.67,19.77l4.93.12s-1.8-1.15-3-1.92c.2.07.39.16.59.22l.05.02.04.02c4.29,1.18,10.01.09,13.9-2.64l2.95-2.07-3.58-.42c-.84-.1-4.53-1.98-6.61-5.43l-.03-.03-.02-.03c-2.31-3.36-4.91-4.65-7.73-3.85-2.19.59-3.58,2.09-3.68,4.02-.09,1.81,1,3.53,2.66,4.16l.99-2.56c-.55-.21-.93-.83-.9-1.45.04-.7.63-1.24,1.67-1.52,1.03-.29,2.62-.32,4.73,2.76l-.04-.07c1.52,2.51,3.75,4.39,5.67,5.51-2.96,1.28-6.49,1.72-9.22.97-1.62-.57-3.58-1.37-4.58-2.49l-2.26-2.56-.14,3.41c0,.09,0,.17,0,.26,0,.62.11,1.21.28,1.79-4.79-2.63-9.41-9.86-9.59-16.06l-2.75.08Z"/>
            <path class="cls-3" d="m425.69,570.36c-1.85,1.3-2.64,3.19-2.08,5.04.53,1.74,2.14,2.97,3.92,3l.04-2.75c-.58-.01-1.16-.46-1.34-1.05-.21-.67.17-1.38,1.04-2,.88-.63,2.36-1.2,5.39.97l-.07-.04c2.29,1.84,5.04,2.84,7.22,3.24-2.34,2.22-5.53,3.83-8.34,4.06-1.72.01-3.84-.06-5.15-.77l-3-1.64,1.04,3.26c.21.65.54,1.24.94,1.78-5.4-.84-12.2-6-14.48-11.77l-2.56,1.02c3.13,7.87,14.12,15.69,21.49,13.21l4.68-1.57s-2.04-.45-3.44-.76h.69c4.43-.37,9.43-3.34,12.16-7.24l2.06-2.95-3.51.83c-.82.19-4.93-.31-8.06-2.84l-.03-.03-.03-.02c-3.31-2.37-6.2-2.7-8.59-.98Z"/>
            <path class="cls-3" d="m458.46,554.73c-.71.46-4.75,1.39-8.55.09h-.04s-.04-.02-.04-.02c-3.92-1.1-6.75-.41-8.39,2.02-1.31,1.86-1.4,3.9-.23,5.44,1.09,1.45,3.03,2.06,4.71,1.48l-.89-2.6c-.55.19-1.25-.04-1.62-.54-.43-.56-.32-1.35.3-2.23.61-.89,1.81-1.93,5.4-.93l-.08-.02c2.79.95,5.71.93,7.91.56-1.44,2.89-3.89,5.5-6.46,6.69-1.61.6-3.63,1.25-5.11,1.04l-3.38-.51,2.09,2.7c.42.56.95.99,1.52,1.37-5.36,1.06-13.54-1.48-17.67-6.12l-2.06,1.83c5.63,6.33,18.63,9.92,24.71,5.06l3.86-3.08s-2.1.27-3.52.46c.19-.07.39-.14.57-.2l.05-.02.04-.02c4.04-1.85,7.72-6.36,8.95-10.95l.93-3.48-3.01,1.97Z"/>
            <path class="cls-3" d="m466.88,530.92c-.5.68-3.98,2.93-8,3.02h-.07c-4.07.32-6.49,1.92-7.2,4.78-.59,2.19.02,4.14,1.64,5.19,1.52.99,3.55.9,4.94-.23l-1.73-2.13c-.45.37-1.18.39-1.7.05-.59-.38-.76-1.16-.49-2.2.27-1.04,1.04-2.44,4.76-2.72h-.08c2.94-.06,5.69-1.06,7.63-2.15-.37,3.2-1.78,6.48-3.79,8.47-1.3,1.12-2.98,2.43-4.45,2.73l-3.34.68,2.88,1.82c.59.37,1.23.62,1.88.78-4.67,2.82-13.22,3.22-18.68.28l-1.31,2.42c7.46,4.02,20.9,2.95,24.96-3.69l2.57-4.22s-1.89.98-3.17,1.65c.16-.14.33-.26.49-.4l.03-.03.03-.03c2.88-2.83,4.73-7.63,4.73-12.04,0-.44-.02-.88-.06-1.32l-.31-3.59-2.16,2.88Z"/>
            <path class="cls-3" d="m466.66,505.68c-.24.81-2.74,4.12-6.49,5.57h-.04s-.04.03-.04.03c-3.71,1.69-5.43,4.02-5.13,6.95.2,2.26,1.44,3.88,3.33,4.32,1.77.41,3.64-.37,4.56-1.89l-2.35-1.42c-.3.5-.98.78-1.58.63-.69-.15-1.12-.83-1.21-1.9-.11-1.07.14-2.64,3.53-4.19l-.07.03c2.74-1.06,4.98-2.94,6.42-4.63.29,1.21.46,2.48.46,3.75,0,1.99-.37,3.94-1.1,5.5-.85,1.5-1.97,3.3-3.26,4.08l-2.91,1.78,3.34.73c.69.15,1.38.15,2.06.08-3.43,4.26-11.34,7.56-17.48,6.66l-.4,2.72c8.38,1.23,20.65-4.37,22.19-12l.97-4.84s-1.44,1.58-2.41,2.63c.1-.18.22-.37.32-.54l.03-.04.02-.04c.92-1.95,1.38-4.31,1.38-6.71,0-2.58-.53-5.21-1.57-7.44l-1.53-3.27-1.03,3.45Z"/>
            <path class="cls-3" d="m457.81,482.03c.05.84-1.16,4.8-4.19,7.45l-.03.03-.03.03c-2.9,2.85-3.73,5.64-2.45,8.28.96,2.06,2.68,3.16,4.6,2.93,1.8-.23,3.29-1.6,3.64-3.34l-2.7-.52c-.11.57-.66,1.06-1.27,1.13-.7.09-1.34-.4-1.79-1.38-.46-.97-.77-2.52,1.89-5.14l-.06.06c2.21-1.93,3.67-4.47,4.46-6.55,1.6,2.41,2.58,5.41,2.58,8.04,0,.3-.01.59-.03.87-.28,1.7-.73,3.78-1.66,4.95l-2.12,2.68,3.38-.46c.7-.09,1.35-.34,1.96-.64-1.75,5.18-8.07,10.99-14.15,12.25l.56,2.69c8.29-1.71,17.9-11.17,16.74-18.87l-.74-4.88s-.82,1.97-1.37,3.29c.04-.2.09-.41.12-.62v-.05s.01-.05.01-.05c.04-.38.06-.77.06-1.16,0-4.19-1.99-9-5.07-12.07l-2.55-2.55.2,3.6Z"/>
            <path class="cls-3" d="m441.41,462.83c.33.77.55,4.91-1.39,8.44l-.02.03-.02.03c-1.75,3.68-1.58,6.58.54,8.62,1.6,1.61,3.6,2.05,5.33,1.17,1.62-.82,2.55-2.62,2.27-4.38l-2.72.43c.09.58-.25,1.22-.8,1.5-.62.32-1.39.08-2.14-.68-.78-.75-1.59-2.11.02-5.47l-.04.07c1.42-2.58,1.92-5.45,1.94-7.68,2.59,1.92,4.73,4.77,5.45,7.5.2,1.05.38,2.26.38,3.36,0,.68-.07,1.31-.25,1.85l-1.08,3.24,3.02-1.59c.62-.33,1.15-.77,1.62-1.27,0,.08.02.15.02.23,0,5.44-3.91,12.9-9.12,16.11l1.44,2.34c7.21-4.45,13-16.62,9.28-23.45l-2.36-4.34s-.1,2.15-.16,3.58c-.03-.21-.06-.43-.1-.63v-.05s-.03-.05-.03-.05c-1.12-4.3-4.91-8.71-9.23-10.72l-3.27-1.52,1.43,3.31Z"/>
            <path class="cls-3" d="m419.43,450.41c.57.61,2.19,4.43,1.57,8.4v.04s0,.04,0,.04c-.4,4.06.76,6.72,3.44,7.92,2.06.96,4.09.7,5.41-.72,1.24-1.32,1.5-3.34.64-4.89l-2.4,1.33c.28.51.17,1.24-.25,1.68-.48.52-1.28.55-2.25.1-.98-.44-2.22-1.44-1.86-5.15v.08c.11-.76.16-1.52.16-2.26,0-2.1-.42-4.07-.97-5.62,3.09.92,6.07,2.87,7.69,5.19.87,1.48,1.87,3.36,1.91,4.85l.09,3.41,2.3-2.52c.47-.52.83-1.11,1.1-1.73.64,1.66.97,3.67.97,5.81,0,4.43-1.35,9.36-3.94,12.64l2.16,1.71c5.26-6.64,6.54-20.07.69-25.21l-3.7-3.27s.64,2.03,1.07,3.4c-.1-.18-.2-.37-.31-.54l-.02-.04-.03-.04c-2.53-3.66-7.6-6.5-12.34-6.91l-3.59-.31,2.47,2.62Z"/>
            <path class="cls-3" d="m394.79,443.69l-3.48.94,3.22,1.62c.75.38,3.58,3.41,4.35,7.36v.04s.02.04.02.04c1.01,3.95,3.02,6.05,5.95,6.26,2.26.2,4.08-.74,4.83-2.52.71-1.67.27-3.65-1.07-4.82l-1.81,2.08c.44.38.59,1.1.35,1.66-.27.65-1.02.96-2.08.86-1.07-.08-2.58-.59-3.51-4.2l.02.08c-.57-2.88-2.03-5.4-3.44-7.12,3.22-.19,6.69.61,9,2.24,1.33,1.09,2.9,2.51,3.45,3.9l1.25,3.18,1.3-3.16c.27-.65.4-1.34.44-2.03,2.61,2.98,4.3,8.18,4.3,13.07,0,1.86-.24,3.68-.78,5.31l2.61.87c2.67-8.04-.72-21.09-7.97-23.93l-4.59-1.8s1.3,1.7,2.17,2.83c-.16-.14-.32-.28-.48-.41l-.04-.03-.03-.03c-3.63-2.58-9.37-3.51-13.97-2.28Z"/>
          </g>
          <path class="cls-11" d="m450.86,518.94c0,30.39-24.63,55.02-55.02,55.02s-55.02-24.63-55.02-55.02,24.63-55.02,55.02-55.02,55.02,24.63,55.02,55.02Z"/>
          <path class="cls-7" d="m445.36,518.94c0,27.35-22.17,49.51-49.51,49.51s-49.51-22.17-49.51-49.51,22.17-49.52,49.51-49.52,49.51,22.17,49.51,49.52Z"/>
          <path class="cls-11" d="m439.17,518.94c0,23.93-19.4,43.32-43.33,43.32s-43.33-19.4-43.33-43.32,19.4-43.33,43.33-43.33,43.33,19.39,43.33,43.33Z"/>
          <path class="cls-1" d="m432.97,518.94c0,20.51-16.63,37.14-37.13,37.14s-37.14-16.63-37.14-37.14,16.63-37.14,37.14-37.14,37.13,16.62,37.13,37.14Z"/>
          <rect class="cls-20" x="394.5" y="481.06" width="4.44" height="73.3"/>
          <path class="cls-15" d="m340,429.11c-1.54-.29-2.41-.47-2.42-.47l-.28,1.34s.15.03.2.04l.2-.08c.76-.3,1.54-.55,2.31-.83Z"/>
          <path class="cls-15" d="m337.42,421.35l.61,1.23s.07-.03.09-.04v-1.5c-.23.11-.48.2-.7.31Z"/>
          <path class="cls-19" d="m396.28,472.61s3.86,4.16,2.67,5.94c-1.19,1.78-2.97,5.64-1.78,9.21,1.19,3.56,5.35,6.53,5.35,11.28s-5.65,7.43-3.57,9.81c2.08,2.37,11.28,5.94,11.28,11.88s-6.24,9.8-12.77,10.69c-6.53.89-12.96,3.58-12.96,8.93s10.59,8.6,14.45,8.29c3.86-.3,3.86-2.08,3.86-2.08,0,0-3.57-.89-4.46-4.46-.9-3.56,4.46-9.21,10.99-6.24,6.53,2.97,6.24,13.66-3.57,18.12-9.8,4.46-23.46,2.68-28.81-6.53-5.34-9.21-.89-21.98,9.8-22.58,10.69-.59,12.77-.89,12.18-3.86-.59-2.97-8.32-5.64-8.91-11.59-.59-5.94,5.05-7.72,7.42-9.2,2.38-1.49-.89-5.95-3.86-8.91-2.97-2.97-2.67-8.91.89-11.28,3.56-2.38,2.67-4.75,1.78-7.43Z"/>
          <path class="cls-21" d="m567.01,494.35c0,135.24-77.1,244.87-172.2,244.87s-172.19-109.63-172.19-244.87,77.09-244.86,172.19-244.86,172.2,109.63,172.2,244.86Z"/>
          <g>
            <path class="cls-10" d="m461.95,429.46v-20.96c-4.19-1.46-4.05-1.83-10.24-2.84l-4.02-7.35,1.07-12.87-10.29-.99-2.78-7.32,1.88-10.8-5.2-.88-.97-19-10.51-.79-.96-17.96-9.44-1.85-.86-15.58-3.39-1.26-.3-13.86-5.51-.15c0-2.8-3.42-2.49-4.45-2.49s-4.55-.31-4.55,2.49l-5.15.24-.61,13.74-3.62,1.45-.49,15.68-8.43,2.05-1.02,17.91-9.81,1.06-.74,17.81-6.02.87,1.35,11.58-3.76,7.23-9.45,1.15.61,12.3-3.04,7.34c-5.44.68-10.1,1.17-10.86,3.29l.11,20.09c21.75-3.87,27.63-5,64.38-5s67.08,2.96,67.08,5.65Z"/>
            <path class="cls-12" d="m391.04,292.36c-.37.36-.62.79-.8,1.27-1.37.06-5.34.25-5.34.25,0,0-.56,12.51-.63,14.13-1,.4-3.64,1.45-3.64,1.45,0,0-.43,13.63-.49,15.53-1.63.39-8.4,2.04-8.4,2.04,0,0-.89,15.64-1.02,17.76-1.87.2-9.83,1.06-9.83,1.06,0,0-.66,15.77-.74,17.85-1.53.22-6.22.9-6.22.9,0,0,1.37,11.72,1.47,12.54-.33.63-2.67,5.12-3.21,6.17-1.28.16-10.03,1.21-10.03,1.21,0,0,.62,12.71.65,13.32-.2.49-2.1,5.08-2.6,6.26-5.92.74-10.19,1.3-11.2,4.13l-.08.24.12,22.06,2.49-.44c20.86-3.71,27.15-4.83,63.32-4.83s63.51,2.89,65.88,4.88c-.06-.06-.25-.29-.25-.66h2.89v-21.96l-3.34-1.23c-1.99-.76-3.17-1.2-7.41-1.92-.53-.97-3.14-5.73-3.48-6.36.07-.81,1.16-13.85,1.16-13.85,0,0-9.32-.9-10.81-1.04-.47-1.24-2.09-5.52-2.31-6.11.13-.72,2.05-11.84,2.05-11.84,0,0-4.1-.7-5.49-.93-.11-2.04-.97-19.11-.97-19.11,0,0-8.55-.64-10.51-.79-.12-2.19-.95-17.82-.95-17.82,0,0-7.73-1.51-9.45-1.85-.11-1.93-.85-15.4-.85-15.4,0,0-2.38-.89-3.36-1.25-.04-1.69-.31-14.25-.31-14.25,0,0-4.3-.12-5.74-.16-.18-.48-.44-.91-.8-1.26-1.36-1.33-3.53-1.29-4.58-1.27h-.25s-.26,0-.26,0c-1.08-.02-3.31-.07-4.69,1.29Zm5.26,1.6c.6-.01,2.01-.04,2.5.44.05.05.19.18.19.61v1.4s4,.11,5.55.15c.05,2.23.3,13.46.3,13.46,0,0,2.45.91,3.42,1.27.09,1.67.86,15.75.86,15.75,0,0,7.72,1.51,9.44,1.85.11,1.97.96,18.1.96,18.1,0,0,8.55.64,10.51.79.11,2.21.96,18.88.96,18.88,0,0,3.41.58,4.92.83-.37,2.15-1.7,9.76-1.7,9.76l3.23,8.52s7.66.74,9.77.94c-.19,2.25-.99,11.88-.99,11.88l4.57,8.35.69.11c4.57.75,5.56,1.13,7.55,1.89,0,0,.77.28,1.48.54v17.39c-2.71-.88-7.95-1.82-18.19-2.72-13.29-1.18-30.14-1.82-47.45-1.82-35.9,0-42.62,1.1-62.95,4.72-.02-2.81-.09-17.29-.1-17.99.67-1.12,5.4-1.72,8.91-2.15l1.51-.19,3.48-8.42s-.45-9.15-.55-11.28c1.97-.24,8.87-1.08,8.87-1.08l4.32-8.31s-.99-8.47-1.24-10.62c1.64-.24,5.81-.85,5.81-.85,0,0,.65-15.61.74-17.76,1.89-.2,9.79-1.06,9.79-1.06,0,0,.92-16.18,1.03-18.06,1.6-.39,8.46-2.06,8.46-2.06,0,0,.45-14.17.5-15.84,1.01-.4,3.61-1.44,3.61-1.44,0,0,.5-11.21.59-13.36,1.46-.07,5.21-.25,5.21-.25v-1.38c0-.41.13-.54.18-.59.51-.5,2.04-.47,2.61-.46h.32s.31,0,.31,0Z"/>
            <path class="cls-10" d="m396.08,423.72c36.37,0,65.87,2.59,65.87,5.78s-29.5,5.78-65.87,5.78-65.88-2.59-65.88-5.78,29.5-5.78,65.88-5.78Z"/>
            <path class="cls-12" d="m349.37,423.97c-20.61,1.81-20.61,4.04-20.61,5.52s0,3.72,20.61,5.52c12.48,1.09,29.07,1.7,46.71,1.7s34.22-.6,46.7-1.7c20.62-1.81,20.62-4.04,20.62-5.52s0-3.71-20.62-5.52c-12.48-1.1-29.07-1.7-46.7-1.7s-34.22.6-46.71,1.7Zm46.71,1.19c35.79,0,58.56,2.37,63.62,4.33-5.06,1.96-27.83,4.33-63.62,4.33s-58.56-2.37-63.63-4.33c5.06-1.96,27.83-4.33,63.63-4.33Z"/>
            <path class="cls-10" d="m396.42,292.44c-6,0-8.2-3.25-6.78-8.24l6.91-18.81,6.11,19.52c.83,7.52-6.24,7.52-6.24,7.52Z"/>
            <path class="cls-12" d="m395.2,264.9l-6.93,18.86v.05c-1.06,3.68-.16,5.95.79,7.19,1.44,1.91,3.92,2.88,7.37,2.88.15,0,3.67-.03,5.94-2.56,1.45-1.62,2.04-3.83,1.74-6.57l-.02-.14-7.42-23.71-1.47,3.99Zm1.25,4.98c1.57,5.03,4.71,15.06,4.79,15.31.03.32.05.62.05.91,0,1.38-.36,2.49-1.06,3.29-1.39,1.56-3.76,1.61-3.81,1.61-1.71,0-3.98-.3-5.06-1.73-.51-.67-.69-1.51-.69-2.35,0-.8.16-1.6.35-2.28.04-.11,3.61-9.83,5.42-14.75Z"/>
            <path class="cls-14" d="m352.85,383.14l.19,2.88c10.79-.7,28.24-1.41,42.9-1.41,12.04,0,30.17.29,41.62,1.1l.2-2.88c-11.52-.82-29.73-1.11-41.82-1.11-14.72,0-32.25.71-43.08,1.42Z"/>
            <path class="cls-14" d="m356.89,376.18l.21,2.88c12.26-.9,29.59-.92,43.32-.83,14.02.09,26.82.42,35.12.92l.17-2.88c-8.35-.5-21.2-.83-35.27-.92-13.78-.09-31.18-.07-43.55.84Z"/>
            <path class="cls-14" d="m361.45,363.38l.18,2.88c7.27-.45,17.37-.32,27.15-.2l13.8.12c8.1,0,22.73.34,29.91.62l.11-2.88c-7.21-.29-21.89-.63-30.03-.63l-13.76-.12c-9.83-.12-19.99-.25-27.36.21Z"/>
            <path class="cls-14" d="m361.93,358.32l.18,2.88c8.71-.55,20.94-.52,32.77-.48h8.41c5.95.01,15.16.42,22.56.74l5.91.25.11-2.88-5.89-.25c-7.43-.32-16.67-.72-22.68-.72l-8.4-.02c-11.87-.03-24.15-.07-32.96.49Z"/>
            <path class="cls-14" d="m372.1,347.52l-.11-2.88c13.5-.5,28.84-.61,48.29-.35l-.04,2.89c-19.4-.26-34.7-.15-48.14.35Z"/>
            <path class="cls-14" d="m401.08,339.4h-5.29c-7.91.01-16.55.13-23.13.33l.09,2.89c6.54-.2,15.15-.32,23.04-.32h5.29c6.54-.03,13.95-.05,19.24.15l.11-2.89c-5.35-.2-12.79-.18-19.36-.16Z"/>
            <path class="cls-14" d="m381.64,327.45l-.09-2.89c5.75-.18,10.82-.26,16.44-.26,4.34,0,8.71.06,12.97.18l-.08,2.89c-4.24-.12-8.58-.18-12.89-.18-5.59,0-10.63.08-16.35.26Z"/>
            <path class="cls-14" d="m381.84,319.61l.03,2.89,10.17-.05c5.94,0,12.95.09,17.85.22l.08-2.89c-4.92-.14-11.96-.22-17.92-.22l-10.2.04Z"/>
            <rect class="cls-14" x="385.7" y="307.36" width="20.41" height="2.89" transform="translate(-2.24 2.9) rotate(-.42)"/>
            <polygon class="cls-14" points="386.53 305.7 406.11 305.77 406.09 302.88 386.51 302.81 386.53 305.7"/>
            <polygon class="cls-14" points="386.53 296.7 406.33 296.77 406.3 293.88 386.5 293.82 386.53 296.7"/>
            <path class="cls-14" d="m349.75,418.37c-20.49,1.55-20.78,3.66-20.98,5.05l2.86.4c-.03.22-.13.35-.16.39,1.87-1.81,23.22-4.36,64.82-4.36,38.7,0,62.13,2.81,64.17,4.84-.04-.04-.17-.23-.17-.51h2.89c0-1.48,0-3.71-20.49-5.52-12.4-1.09-28.88-1.7-46.4-1.7s-34.48.5-46.54,1.42Z"/>
            <path class="cls-14" d="m348.94,403.34c-20.19,1.8-20.19,4.04-20.19,5.52h2.89c0,.27-.12.45-.16.49,2-2.02,25.37-4.83,64.03-4.83s61.02,2.54,62.96,4.26l-.18-.34,2.79-.76c-.31-1.14-.83-3.06-19.86-4.58-11.92-.95-28.15-1.48-45.71-1.48s-34.28.6-46.57,1.7Z"/>
            <path class="cls-14" d="m359.24,395.19c-16.3.8-16.55,1.76-16.89,3.1l2.77.89-.48.74c1.96-1.09,20.75-2.24,51.68-2.24,23.11,0,44.79,1.31,51.61,2.52l.46-3.18c-6.94-1.23-28.81-2.56-52.07-2.56-14.33,0-27.49.26-37.07.73Z"/>
            <path class="cls-10" d="m380.35,423.95c4.57,5.1,7.73,7.9,11.85,11.3l7.97-.04c1.98-2.23,8.97-7.09,11.91-11.27h-31.73Z"/>
            <path class="cls-12" d="m412.08,422.49l-34.95.02,2.15,2.4c4.46,4.98,7.66,7.87,12,11.45l.4.33,9.14-.05.43-.48c.66-.74,2.02-1.89,3.61-3.22,2.86-2.4,6.43-5.39,8.41-8.18l1.61-2.28h-2.79Zm-3.13,2.89c-1.78,1.85-4.02,3.74-5.95,5.36-1.4,1.17-2.61,2.2-3.45,3.03-.95,0-5.99.03-6.84.04-3.35-2.78-5.95-5.1-9.07-8.41,4.7,0,20.8,0,25.3-.01Z"/>
          </g>
        </g>
        <g>
          <g>
            <polygon class="cls-9" points="585.36 469.68 590.98 463.73 595.8 466.73 592.54 462.23 599.07 455.48 605.34 461.91 601.86 467 607.37 463.73 613.37 469.57 607.16 475.41 602.28 472.78 605.66 477.23 599.23 483.06 593.23 477.28 595.97 472.89 591.25 475.57 585.36 469.68"/>
            <path class="cls-18" d="m594.2,469.78c0,2.64,2.23,4.87,4.87,4.87s4.81-2.18,4.81-4.87-2.16-4.81-4.81-4.81-4.87,2.16-4.87,4.81Zm1.49,0c0-1.83,1.51-3.33,3.38-3.33s3.32,1.49,3.32,3.33-1.49,3.38-3.32,3.38-3.38-1.55-3.38-3.38Z"/>
          </g>
          <g>
            <polygon class="cls-9" points="178.33 469.99 183.95 464.04 188.77 467.04 185.5 462.54 192.04 455.79 198.3 462.22 194.82 467.31 200.34 464.04 206.33 469.88 200.12 475.72 195.25 473.09 198.62 477.53 192.2 483.37 186.2 477.59 188.93 473.2 184.22 475.88 178.33 469.99"/>
            <path class="cls-18" d="m187.17,470.09c0,2.64,2.23,4.87,4.87,4.87s4.81-2.18,4.81-4.87-2.16-4.81-4.81-4.81-4.87,2.16-4.87,4.81Zm1.49,0c0-1.83,1.52-3.33,3.38-3.33s3.33,1.49,3.33,3.33-1.49,3.38-3.33,3.38-3.38-1.55-3.38-3.38Z"/>
          </g>
        </g>
      </g>
      <g>
        <path class="cls-3" d="m191.65,414.15c.56-.26,1.09-.32,1.61-.2.6.14,1.07.49,1.41,1.03.34.54.44,1.11.29,1.73-.1.41-.3.78-.61,1.12-.67.51-1.38.68-2.15.49-.7-.17-1.28-.58-1.73-1.23-.5-.75-.57-1.83-.23-3.24.44-1.83,1.25-3.12,2.43-3.87-.66-.64-.92-1.44-.77-2.4-.11.75.12-.09.71-2.53-.04,1.01.16,1.76.59,2.26.44.5,1.19.9,2.26,1.23l19.19,4.64c1.03.21,1.95-.07,2.74-.84.71-.69,1.21-1.64,1.5-2.83.39-1.6.42-2.88.12-3.85-.37-1.07-1.06-1.72-2.07-1.96l-19.17-4.63c-2.34-.56-3.71-.04-4.1,1.58.62-2.56,1.38-3.98,2.28-4.26-.82-.7-.89-2.14-.21-4.32.05,1.38,1.16,2.26,3.33,2.63l20.02,4.87c.92.11,1.72-.07,2.4-.56.73-.97,1.16-1.85,1.28-2.62.18.67.17,1.41-.03,2.21-.19,1.73-.99,2.91-2.38,3.53.78,2.55.83,5.27.13,8.14-.2.84-.48,1.66-.83,2.47-.91,1.8-1.76,2.98-2.55,3.55,1.03,1.14,1.35,2.52.96,4.14-.3,1.42-.84,2.37-1.62,2.83s-1.52.61-2.22.44c-.79-.19-1.36-.68-1.71-1.46-.1-.44-.1-.85,0-1.24.14-.59.49-1.06,1.03-1.38.54-.32,1.12-.41,1.74-.26.53.13.99.42,1.38.89.17-.22.27-.49.3-.81.05-.95-.92-1.6-2.91-1.97l-19.45-4.7c-1.82-.5-2.84-.29-3.06.63-.06.25-.02.51.12.78Z"/>
        <path class="cls-3" d="m205.94,374.88c.54-1.04,1.07-2.09,1.58-3.14.91-1.59,1.78-2.72,2.61-3.39.54-.49,1.25-.88,2.14-1.18,1-.35,1.8-.4,2.41-.15l13.4,4.47c1,.32,1.76.41,2.27.27.63-.17,1.24-.74,1.8-1.73-.34,2.44-1.18,3.84-2.53,4.19.67.76.75,1.86.23,3.32-.25.54-.47.95-.66,1.24.32-1.56-.51-2.69-2.5-3.38l-12.87-4.39c-2.93.64-5.06,2.28-6.4,4.95l8.09,7.11,7.76,2.63c2.22.75,3.58.4,4.08-1.06-.78,2.3-1.61,3.53-2.5,3.69.66.71.62,2.07-.13,4.06.03-1.3-.95-2.29-2.92-2.96l-19.21-6.5c-1.58-.54-2.5-.41-2.76.37-.07.22-.06.47.06.75.53-.2,1.04-.21,1.54-.04.56.19.99.55,1.28,1.09.3.54.35,1.07.17,1.61-.11.34-.34.65-.67.94-.64.45-1.34.55-2.11.29-.69-.23-1.22-.67-1.61-1.31-.47-.8-.44-1.97.08-3.51.54-1.6,1.34-2.66,2.4-3.2-.62-.76-.75-1.68-.39-2.74.22-.64.5-1.14.86-1.51-.34,1.55.56,2.73,2.7,3.52,1.1.39,3.78,1.31,8.07,2.76l-10.17-8.85c1.96-3.79,3.13-6.26,3.51-7.4.47-1.4.62-2.66.45-3.79,1.79,1.63,2.2,3.88,1.22,6.76-.3.88-1.17,2.55-2.61,5.03l1.34,1.19Z"/>
        <path class="cls-3" d="m211.42,359.49c-1.91-1.22-2.73-2.96-2.44-5.22.13-1.23.41-2.36.85-3.39.92-2.13,2.44-3.73,4.54-4.79-.71-1.3-.72-2.73-.05-4.29.33-.76.77-1.34,1.34-1.77-.35.7-.44,1.55-.27,2.54.25,1.07.77,1.84,1.56,2.29l18.5,8.06c1.89.82,3.36.51,4.41-.92-.2.74-.37,1.28-.51,1.61-.6,1.39-1.41,2.14-2.43,2.23.42.57.5,1.34.23,2.3-.25.65-.52,1.31-.79,2,.08-.19.06-.51-.09-.97-.29-.93-1.14-1.69-2.53-2.27-7.84-3.32-13.7-5.83-17.58-7.52-.79-.32-1.64-.13-2.55.59-.9.71-1.63,1.71-2.19,2.99-1.06,2.46-1.06,4.64,0,6.55Z"/>
        <path class="cls-3" d="m220.85,338.78c-1.65-1.24-2.43-3.04-2.34-5.4.27-1.19.66-2.27,1.17-3.24,1.06-2.04,2.54-3.55,4.41-4.55-.59-1.33-.5-2.74.27-4.21.36-.69.82-1.21,1.37-1.57-.37.66-.5,1.48-.38,2.44.16,1.08.78,1.97,1.88,2.66l17.29,8.98c1.97,1.1,3.49.97,4.54-.38-.61,2.68-1.65,3.86-3.14,3.54.59,1.09.39,2.55-.6,4.36-.7,1.2-1.47,1.93-2.29,2.19-.74.19-1.41.12-2.02-.19-.7-.37-1.11-.95-1.24-1.75-.02-.44.06-.83.24-1.16.28-.54.72-.9,1.3-1.07.59-.17,1.14-.12,1.66.16.47.24.81.62,1.04,1.15.28-.11.48-.28.58-.48.42-.8-.31-1.64-2.19-2.5-7.16-3.73-12.56-6.56-16.21-8.49-.75-.37-1.59-.24-2.54.39-.95.63-1.73,1.55-2.37,2.76-1.2,2.3-1.34,4.43-.43,6.38Z"/>
        <path class="cls-3" d="m210.43,334.31l-3.57-7.5c5.73-3.53,9.98-7.06,12.76-10.6-.3,2.26-.96,4.27-1.97,6.05-2.02,2.88-4.6,4.81-7.75,5.81l1.58,3.27c1.76-.52,3.37-1.57,4.83-3.14.78-.84,1.94-2.4,3.47-4.69-.61,1.74-1.29,3.25-2.02,4.53-1.79,3.13-4.23,5.22-7.33,6.27Z"/>
        <path class="cls-3" d="m243.03,314.28c-1.58-2.31-3.17-4.62-4.77-6.92-1.79-2.68-2.5-4.31-2.12-4.89,1.21-1.9,2.04-3.11,2.48-3.63.83-.99,1.73-1.64,2.68-1.95-.4-.99-.18-2.13.66-3.42.28-.42.62-.88,1.02-1.38-.52,2,0,3.49,1.55,4.44l16.93,11.03c.99.65,1.79.95,2.39.92.6-.04,1.32-.48,2.15-1.32-1.11,2.43-2.34,3.64-3.7,3.63.46.9.25,2.03-.62,3.37-.39.6-.7.99-.92,1.18.69-1.66.24-2.99-1.34-3.97l-16.38-10.67c-1.56-1.02-2.9-.67-4.02,1.04-.41.64-.69,1.38-.82,2.22-.05.4,1.02,2.11,3.21,5.15,2.54,3.46,4.12,5.87,4.76,7.22l6.87,4.47c1.95,1.27,3.37,1.23,4.25-.14-1.41,2.16-2.57,3.22-3.48,3.17.5.93.08,2.28-1.23,4.06.41-1.27-.26-2.47-2.01-3.61l-16.99-11.07c-1.43-.93-2.38-1.05-2.84-.34-.13.2-.17.46-.12.79.56-.06,1.07.05,1.51.34.52.34.84.8.98,1.39s.03,1.16-.31,1.68c-.21.32-.51.58-.9.78-.77.3-1.49.24-2.15-.2-.59-.38-.98-.95-1.17-1.7-.22-.95.13-2.13,1.05-3.55.97-1.48,2.03-2.37,3.2-2.67-.39-.93-.27-1.88.35-2.83.38-.58.82-1.04,1.32-1.37-.78,1.48-.24,2.88,1.63,4.2.98.66,3.28,2.18,6.91,4.54Z"/>
        <path class="cls-3" d="m263.39,267.57c-.53,1.1-.72,1.94-.59,2.51.14.57.66,1.24,1.56,2l15.42,13.01c1.31,1.27,2.89,1.34,4.72.22-.36.52-.69.97-1.01,1.34-1.01,1.19-2.06,1.74-3.15,1.65-.25,2.13-1.69,4.76-4.31,7.87-2.54,3.02-4.77,4.78-6.67,5.3.19,1.13-.26,2.35-1.36,3.65-.2.24-.46.53-.76.85.6-1.7.21-3.21-1.16-4.54-.04.02-.07.02-.09,0l-5.69-4.79c-.56-.67-.87-1.46-.92-2.37-.06-.92.15-1.59.62-2.02-1.34,1.35-2.67,1.61-3.98.78l-5.71-4.82c-1.63-1.37-3.11-1.51-4.45-.4,1.59-1.89,2.13-2.56,1.62-2.03.66-.68,1.44-.95,2.32-.81-.06-1.35.49-2.72,1.66-4.11.91-1.08,1.78-1.64,2.61-1.69.83-.04,1.52.17,2.07.63.6.51.87,1.16.8,1.96-.08.43-.24.8-.5,1.11-.38.45-.88.7-1.51.74-.62.04-1.16-.13-1.61-.51-.4-.34-.66-.8-.79-1.37-.31.07-.54.18-.68.34-.57.68-.15,1.61,1.25,2.8l5.57,4.78c1.38.44,2.73-.02,4.05-1.38-.74,1.56-.67,3.22.2,4.97l5.03,4.25c.84.71,1.92.77,3.25.18,1.23-.54,2.4-1.47,3.51-2.79,1.13-1.34,1.85-2.65,2.16-3.93.39-1.41.16-2.47-.68-3.18l-14.71-12.33c-1.64-1.39-3.13-1.53-4.47-.42.28-.7.8-1.37,1.56-2,.86-.68,1.66-.96,2.39-.84-.37-1.33.43-2.87,2.38-4.61Z"/>
        <path class="cls-3" d="m269.46,267.67c-1.27-1.88-1.32-3.8-.15-5.77.61-1.08,1.32-2,2.13-2.76,1.69-1.58,3.72-2.44,6.08-2.58-.13-1.47.42-2.79,1.67-3.95.6-.56,1.24-.92,1.93-1.09-.6.5-1.02,1.24-1.26,2.22-.2,1.09-.03,1.99.51,2.72l13.74,14.78c1.41,1.51,2.88,1.81,4.41.92-.48.6-.85,1.02-1.11,1.27-1.11,1.04-2.15,1.4-3.12,1.07.16.69-.08,1.43-.71,2.2-.49.49-1,1-1.53,1.52.16-.14.26-.45.31-.92.1-.97-.37-2-1.42-3.09-5.86-6.17-10.24-10.81-13.12-13.92-.6-.61-1.46-.77-2.57-.48-1.11.29-2.18.91-3.2,1.86-1.96,1.83-2.83,3.83-2.61,6.01Z"/>
        <path class="cls-3" d="m298.72,256.52l5.08,7.13c1.16,1.44,2.07,1.91,2.74,1.44.19-.14.32-.35.39-.65-.53-.16-.93-.44-1.22-.83-.34-.48-.47-1.01-.37-1.6.1-.58.38-1.04.84-1.37.33-.23.69-.37,1.1-.42.77-.01,1.38.29,1.83.92.39.55.55,1.22.45,1.99-.14.78-.77,1.57-1.89,2.37-1.46,1.04-2.82,1.49-4.09,1.35.07.89-.44,1.73-1.54,2.52-.58.42-1.04.68-1.38.79,1.18-1.06,1.17-2.38-.03-3.95l-5.34-7.51c-1.02-1.38-2.43-1.81-4.24-1.3.33-.26.63-.49.91-.69,1.32-.95,2.52-1.3,3.61-1.05.54-2.03,2.34-4.15,5.41-6.35,2.01-1.44,3.91-2.41,5.73-2.93l-2.9-4.04c-1.78-2.48-4.7-2.26-8.76.65-1.83,1.31-3.41,2.83-4.72,4.54-1.32,1.71-1.88,3.03-1.69,3.94-1.11-1.55-1.11-3.35.02-5.4,1-1.79,2.66-3.53,4.99-5.2,3.6-2.58,6.65-3.78,9.16-3.61,0-1.05.61-2.01,1.82-2.89.4-.28.86-.58,1.4-.88-1.2,1.72-1.24,3.23-.12,4.5l1.34,1.87,10.25,14.24c.58.91,1.14,1.45,1.68,1.61.55.16,1.34,0,2.37-.46-1.82,1.77-3.34,2.45-4.56,2.06.06.69-.28,1.42-1.01,2.18-.66.66-1.35,1.12-2.06,1.36,1.2-1.18,1.21-2.61.02-4.26l-4.7-6.56c-.64-.89-1.68-1.24-3.12-1.04-1.29.23-2.61.82-3.95,1.78-2.93,2.1-4.08,4.02-3.46,5.76Z"/>
        <path class="cls-3" d="m307.67,225.22c-.89-.9-1.7-1.13-2.44-.68-.63.38-.96.92-.98,1.63-.22,2.87-1.47,4.99-3.74,6.36-.97.59-1.95.89-2.92.91.07.78-.75,1.55-2.47,2.33.48-.55.61-1.13.38-1.76-.02-.07-.42-.76-1.21-2.08-1.15-1.54-1.37-2.91-.67-4.13.37-.58.8-1.02,1.31-1.32,1.59-.96,2.86-.65,3.79.91.34.56.49,1.15.45,1.76-.04.61-.29,1.02-.76,1.22.12-.25.02-.65-.31-1.19-.32-.53-.85-.71-1.58-.55-.11.02-.21.05-.31.11-.6.36-.66.92-.2,1.69.65,1.07,1.74,1.32,3.27.76.75-.51,1.19-.8,1.3-.9.51-.51.81-1.23.92-2.16-.2-2.88.43-4.75,1.89-5.63.36-.22.77-.38,1.21-.5,1.13-.3,2,.08,2.62,1.11.34.56.49,1.27.45,2.11Z"/>
        <path class="cls-3" d="m334.43,218.16c-.93.79-1.45,1.48-1.55,2.06-.11.58.1,1.4.62,2.46l8.83,18.14c.68,1.69,2.09,2.4,4.23,2.11-.54.34-1.03.61-1.46.82-1.4.68-2.59.76-3.55.23-1.09,1.85-3.47,3.67-7.13,5.45-3.55,1.73-6.29,2.44-8.24,2.14-.28,1.11-1.19,2.04-2.72,2.79-.28.14-.63.3-1.04.47,1.24-1.31,1.5-2.85.77-4.62-.05,0-.08-.01-.09-.03l-3.26-6.69c-.24-.83-.2-1.68.11-2.54.32-.86.78-1.39,1.39-1.59-1.77.69-3.09.4-3.95-.89l-3.27-6.72c-.93-1.91-2.23-2.64-3.9-2.16,2.22-1.08,2.99-1.48,2.3-1.19.88-.36,1.7-.29,2.45.2.49-1.26,1.55-2.29,3.18-3.08,1.27-.62,2.29-.78,3.07-.49.78.29,1.32.76,1.64,1.42.35.71.33,1.42-.06,2.12-.25.37-.55.63-.91.81-.53.26-1.09.28-1.68.07-.58-.22-1.01-.59-1.27-1.12-.23-.47-.29-1-.17-1.57-.31-.07-.57-.05-.76.04-.8.39-.79,1.41.02,3.07l3.16,6.63c1.08.96,2.5,1.09,4.26.38-1.31,1.12-1.92,2.67-1.83,4.63l2.88,5.92c.48.99,1.45,1.48,2.9,1.48,1.34,0,2.79-.37,4.34-1.13,1.57-.77,2.76-1.68,3.57-2.72.93-1.13,1.15-2.19.67-3.18l-8.46-17.23c-.94-1.93-2.25-2.66-3.92-2.19.54-.53,1.28-.93,2.23-1.2,1.06-.27,1.9-.21,2.52.2.2-1.37,1.55-2.45,4.05-3.25Z"/>
        <path class="cls-3" d="m343.68,214.75c.33-.16.67-.3,1.03-.41,1.01-.3,2.67-.43,4.98-.4,2.31.03,4.01-.11,5.1-.43,1.7-.5,3.02-1.55,3.96-3.15-.18,3.8-1.5,6.06-3.95,6.78-1.35.4-3.24.3-5.65-.28-2.41-.59-3.76-.84-4.05-.75-.18.05-.29.17-.33.34l-1.29,3.91c2.71-.29,6.45-.44,11.24-.45.7.07,1.41.13,2.13.2.95.23,1.77.77,2.46,1.64l3.69,12.57c.61,2.06,1.76,2.97,3.47,2.72-.2.06-.53.18-.99.38-.46.19-.81.32-1.06.39-1.13.33-2.04.16-2.73-.54-.77,1.19-2.05,2.04-3.83,2.57-1.35.4-2.4.37-3.12-.08-.67-.4-1.1-.93-1.3-1.61-.22-.76-.08-1.46.43-2.12.3-.32.65-.53,1.03-.65.59-.17,1.15-.1,1.69.21.54.31.89.75,1.06,1.32.15.51.11,1.03-.1,1.57.28.13.53.16.75.09.83-.24.99-1.27.48-3.09l-3.65-12.34c-.63-.64-2.8-1.07-6.51-1.28-3.51-.21-6.11-.14-7.79.19l2.83-7.31Z"/>
        <path class="cls-3" d="m364.51,214.01c.06-2.27,1.14-3.86,3.23-4.78,1.12-.53,2.24-.86,3.34-1.01,2.3-.31,4.45.17,6.45,1.43.74-1.27,1.96-2.02,3.66-2.25.82-.11,1.55-.03,2.2.24-.78.06-1.55.42-2.31,1.07-.79.77-1.18,1.61-1.17,2.51l2.6,20.01c.27,2.04,1.29,3.15,3.06,3.31-.74.21-1.28.34-1.64.38-1.5.2-2.56-.11-3.16-.94-.28.66-.89,1.11-1.86,1.38-.69.11-1.4.23-2.12.35.21-.03.47-.22.79-.57.65-.73.86-1.84.64-3.34-1.19-8.43-2.05-14.75-2.59-18.95-.14-.85-.74-1.47-1.82-1.88-1.08-.41-2.3-.52-3.68-.34-2.65.35-4.53,1.48-5.61,3.37Z"/>
        <path class="cls-3" d="m411.72,203.4c-4.03.66-6.44,2.25-7.24,4.77-.17.83.18,1.64,1.06,2.44,1.78,1.04,2.84,2.5,3.18,4.35l-.53,16.35c-.08,1.75.8,2.98,2.64,3.67-.59.03-1.12.03-1.58.02-1.5-.05-2.53-.5-3.09-1.35-1.58,1.07-3.29,1.57-5.15,1.51-1.81-.06-3.53-.65-5.13-1.78-.89.89-2.44,1.23-4.65,1,1.62-.52,2.5-1.68,2.64-3.47,0-.02.07-.61.21-1.77l.59-18.16c-.02-1.45-.18-2.33-.48-2.65-.7-.44-1.3-.47-1.8-.09.32.45.48.93.46,1.43-.02.57-.24,1.06-.66,1.48s-.92.61-1.49.59c-.38-.01-.75-.12-1.1-.33-.62-.5-.91-1.13-.89-1.87.02-.68.3-1.3.82-1.87.52-.56,1.56-.82,3.1-.77.99.03,1.91.22,2.77.55.33.1.82.41,1.46.93.44-.62,1.64-.88,3.6-.77-1.14-.08-1.74.99-1.81,3.2l-.59,18.29c-.06,1.16.23,2.08.86,2.76.55.63,1.23.96,2.06.99.86.03,1.61-.26,2.24-.86.63-.61.92-1.56.85-2.85l.45-14.05c-2.18-1.87-3.29-3.82-3.32-5.84-.06-4.2,3.46-6.15,10.54-5.85Z"/>
        <path class="cls-3" d="m439.97,241.42c-2.56-.16-4.11-.89-4.65-2.2-.49.51-1.27.75-2.34.69-1.01-.04-1.83-.26-2.45-.65,1.71.12,2.82-.86,3.33-2.92l4.5-18.66c.27-1.13-.15-2.17-1.27-3.11-1-.89-2.34-1.54-4.02-1.95-1.68-.4-3.17-.43-4.47-.09-1.44.38-2.27,1.24-2.5,2.58l-4.5,18.79c-.53,2.02-.02,3.3,1.52,3.85-2.54-.43-3.89-1.18-4.05-2.25-.26.16-.67.32-1.24.48-.57.16-1.4.16-2.49.01-1.52-.36-2.47-.9-2.85-1.61-.38-.71-.49-1.42-.32-2.13.17-.72.63-1.25,1.38-1.56.4-.13.79-.15,1.18-.06.57.14,1.02.48,1.34,1.01.31.54.4,1.1.27,1.67-.13.53-.42.97-.87,1.31.21.23.51.27.91.13.4-.14.77-.95,1.1-2.43l4.63-19.5s.02-.04.04-.06c.32-1.86-.26-3.3-1.73-4.31.41.08.81.16,1.18.25,1.6.38,2.67,1.08,3.21,2.09,1.97-.97,4.83-1.01,8.58-.11,3.96.95,6.6,2.34,7.91,4.19.81-.75,2.01-.94,3.61-.56.41.1.91.24,1.49.42-2.15.3-3.37,1.3-3.65,3.02l-4.66,19.6c-.3,1.08-.34,1.88-.12,2.41.23.58.89,1.12,1.99,1.63Z"/>
        <path class="cls-3" d="m455.25,212.46c.14-1.26-.2-2.03-1.01-2.33-.69-.25-1.32-.16-1.88.27-2.36,1.64-4.8,2.02-7.29,1.11-1.07-.38-1.92-.95-2.55-1.69-.56.55-1.68.4-3.37-.45.73.03,1.26-.24,1.61-.82.04-.06.32-.8.84-2.25.47-1.86,1.4-2.9,2.78-3.13.68-.08,1.3-.02,1.85.18,1.75.63,2.31,1.8,1.69,3.51-.22.62-.58,1.11-1.08,1.47-.5.36-.97.42-1.43.18.27-.07.51-.4.73-1,.21-.58.01-1.1-.58-1.57-.08-.08-.18-.13-.27-.17-.66-.24-1.14.07-1.44.92-.42,1.18.06,2.18,1.47,3.01.87.27,1.38.42,1.52.44.71.07,1.47-.15,2.26-.66,2.1-1.97,3.95-2.67,5.56-2.09.4.14.78.35,1.15.62.94.69,1.2,1.6.8,2.74-.23.62-.67,1.18-1.35,1.68Z"/>
        <path class="cls-3" d="m464.54,262.16c-2.54-.8-3.89-1.88-4.06-3.23-.99.45-2.2.33-3.65-.37-1.45-.69-2.48-1.88-3.11-3.54-.25.27-.72.43-1.42.48-.83.06-1.6-.11-2.31-.53-.7-.44-1.08-.68-1.13-.72-.34-.41-.65-1.19-.91-2.34-1,.18-2.05,0-3.15-.53-1.31-.63-1.9-1.4-1.77-2.31.28.5.7.88,1.27,1.16,1.33.64,2.96.5,4.9-.42.04,1.82.59,2.95,1.64,3.38.86.34,1.63.38,2.3.12.18-.08.74-.41,1.67-.99.29,1.82,1.06,3.03,2.29,3.62.53.26,1.07.35,1.6.29.53-.06.86-.21.97-.45l11.74-24.56c.54-.98.37-2.09-.51-3.32-.81-1.04-1.99-1.94-3.55-2.69-1.56-.75-3.01-1.12-4.35-1.1-1.47.1-2.47.69-2.99,1.78-1.96,4.02-4.74,9.77-8.33,17.25-.78,2.5-.66,3.88.35,4.15-2.11-.48-3.18-1.36-3.22-2.65-.16.04-.63.14-1.4.28-.77.14-1.71-.09-2.82-.7-1.11-.61-1.79-1.32-2.03-2.14-.23-.74-.19-1.43.11-2.06.34-.71.92-1.16,1.73-1.33.4,0,.78.08,1.14.26.55.27.93.69,1.13,1.27.2.58.17,1.14-.09,1.68-.23.47-.59.84-1.09,1.09.13.28.41.37.87.27.46-.1,1.01-.92,1.65-2.45l8.6-17.81c.79-1.64.43-3.12-1.07-4.42,2.4.84,3.77,1.89,4.1,3.14,2.14-.55,4.98.02,8.51,1.72,3.63,1.75,5.9,3.65,6.8,5.72.96-.54,2.13-.47,3.52.2.44.21.93.47,1.48.79-2.05-.21-3.48.54-4.28,2.25l-12.05,24.99c-.6,1.24-.84,2.17-.72,2.78.12.61.66,1.27,1.62,2Z"/>
        <path class="cls-3" d="m488.4,235.4c.33.15.65.34.97.55.86.6,2.01,1.81,3.43,3.63,1.42,1.82,2.6,3.05,3.53,3.7,1.45,1.01,3.1,1.38,4.93,1.11-3.08,2.24-5.66,2.63-7.76,1.17-1.16-.81-2.27-2.34-3.32-4.58-1.06-2.25-1.71-3.46-1.95-3.62-.16-.11-.31-.12-.47-.04l-3.86,1.44c1.92,1.93,4.39,4.75,7.39,8.48.39.59.78,1.19,1.18,1.79.42.88.5,1.86.26,2.95l-7.49,10.75c-1.23,1.76-1.21,3.23.05,4.41-.17-.12-.48-.3-.92-.54-.44-.24-.76-.43-.97-.57-.97-.68-1.4-1.5-1.29-2.46-1.41.14-2.88-.32-4.4-1.38-1.16-.81-1.79-1.64-1.89-2.48-.11-.77.04-1.44.44-2.02.45-.65,1.09-.98,1.92-.99.44.04.82.17,1.15.4.5.35.8.83.9,1.45.1.62-.02,1.17-.36,1.65-.3.43-.73.73-1.29.91.08.3.21.51.4.64.71.49,1.61-.03,2.71-1.56l7.33-10.58c.11-.89-.92-2.85-3.08-5.88-2.04-2.86-3.72-4.85-5.03-5.95l7.47-2.37Z"/>
        <path class="cls-3" d="m500.63,237.67c-.73-.58-1.13-1.32-1.21-2.24-.08-.92.18-1.76.78-2.51.57-.72,1.32-1.16,2.23-1.3.92-.14,1.74.08,2.47.65.73.58,1.13,1.33,1.2,2.25.07.93-.17,1.75-.75,2.47-.6.76-1.35,1.2-2.26,1.33-.91.13-1.73-.09-2.46-.66Z"/>
        <path class="cls-3" d="m501.58,250.74c1.75-1.44,3.66-1.67,5.73-.69,1.13.51,2.12,1.13,2.95,1.87,1.74,1.54,2.78,3.48,3.13,5.81,1.45-.27,2.81.16,4.09,1.3.62.55,1.04,1.15,1.26,1.82-.55-.55-1.33-.9-2.33-1.05-1.1-.09-1.99.16-2.66.76l-13.43,15.06c-1.37,1.54-1.54,3.04-.5,4.48-.64-.42-1.1-.75-1.37-.99-1.14-1.01-1.59-2.01-1.35-3-.68.22-1.43.05-2.26-.51-.54-.45-1.09-.9-1.65-1.38.16.14.47.21.95.22.97.01,1.96-.55,2.95-1.7,5.6-6.41,9.81-11.2,12.64-14.35.55-.65.63-1.52.24-2.6-.39-1.08-1.11-2.09-2.15-3.01-2-1.78-4.08-2.46-6.22-2.04Z"/>
        <path class="cls-3" d="m530.77,263.76c1.82-1.72,2.77-2.65,2.85-2.78.81-1.09.91-2.27.28-3.53,0,.03-1.43.69-4.27,1.97-2.85,1.28-4.28,1.74-4.29,1.38-.11-4.36,1.04-7.69,3.45-9.96.33-.32.63-.52.87-.61-.66.83-1.26,2.32-1.79,4.48-.53,2.16-.63,3.4-.32,3.74.04.05.08.07.12.08.04,0,1.16-.58,3.35-1.77,2.2-1.19,3.43-1.63,3.71-1.3,1.77,2.04,2.64,3.41,2.59,4.13.89.11,1.69.58,2.4,1.39-1.2.04-2.18.5-2.93,1.4-.75.9-1.96,2.13-3.61,3.7l-22.56,21.32c-1.05.99-1.35,1.73-.9,2.2.13.14.31.22.54.23.07-.44.25-.8.55-1.09.81-.77,1.6-.75,2.37.07.2.21.35.48.44.8.09.64-.08,1.16-.51,1.57-.4.38-.91.57-1.54.58-.62.01-1.31-.38-2.04-1.16-.96-1.01-1.45-2.05-1.49-3.11-.66.16-1.37-.1-2.11-.79.64.58.31.18-.99-1.19,1.03.77,2.14.59,3.34-.54l22.5-21.18Z"/>
        <path class="cls-3" d="m523.92,295.02l18.41-6.73.48.63-11.4,15.95,12.15-9.42c1.67-1.28,2.11-2.66,1.31-4.12.24.13.58.48,1.02,1.05.95,1.24,1.23,2.31.83,3.23.98-.09,1.97.51,2.96,1.79.32.42.62.9.89,1.43-.86-.72-1.59-1.09-2.19-1.11-.6-.02-1.36.32-2.28,1.03l-7.71,6.01c-3.47,2.72-6.06,4.71-7.78,5.98-1.44,1.05-1.83,2.52-1.17,4.41-.42-.44-.78-.85-1.06-1.22-.93-1.2-1.23-2.31-.9-3.33-.02.01-.18,0-.51-.01-.96-.09-1.81-.62-2.55-1.59-.24-.32-.47-.69-.69-1.11,1.1.96,2.34.92,3.71-.14.17-.13.31-.25.4-.35l12.06-16.77-18.95,6.94c-.2.1-.4.23-.61.39-1.46,1.12-1.85,2.5-1.15,4.12-.29-.34-.53-.64-.74-.91-1.08-1.41-1.45-2.63-1.13-3.68-1.13-.03-2.2-.7-3.2-2.01-.22-.28-.43-.6-.64-.94,1.56.99,3.05.93,4.48-.17l15.81-12.11c1.43-1.1,1.88-1.98,1.37-2.65-.14-.18-.35-.3-.64-.35-.13.52-.4.94-.81,1.26-.47.36-1,.51-1.6.43-.6-.07-1.07-.34-1.41-.79-.27-.35-.42-.72-.43-1.1-.03-.8.25-1.43.86-1.9,1.48-1.14,2.96-.73,4.46,1.2,1.09,1.42,1.58,2.81,1.45,4.15.97-.14,1.83.27,2.56,1.23.14.18.33.46.57.82.24.36.43.63.57.82-1.27-1.15-2.73-1.09-4.39.18l-12.38,9.44Z"/>
        <path class="cls-3" d="m542.01,320.85l19.1-4.4.4.68-13.29,14.42,13.22-7.84c1.82-1.07,2.42-2.38,1.81-3.93.22.16.52.55.88,1.17.79,1.34.93,2.45.42,3.31.99.03,1.89.75,2.71,2.15.27.45.5.96.71,1.53-.76-.82-1.44-1.28-2.03-1.37-.59-.1-1.38.15-2.39.74l-8.4,5.01c-3.78,2.27-6.6,3.93-8.45,4.97-1.55.86-2.13,2.27-1.71,4.23-.37-.49-.67-.94-.9-1.34-.77-1.31-.93-2.45-.48-3.42-.02.01-.19-.01-.5-.07-.94-.21-1.72-.84-2.33-1.89-.2-.35-.39-.74-.55-1.18.97,1.09,2.21,1.2,3.7.32.19-.11.34-.21.44-.3l14.04-15.15-19.66,4.55c-.21.08-.43.18-.66.31-1.59.93-2.14,2.25-1.65,3.94-.24-.37-.45-.7-.62-.99-.9-1.53-1.12-2.79-.66-3.79-1.12-.17-2.1-.97-2.93-2.39-.18-.31-.36-.65-.52-1.01,1.42,1.17,2.91,1.3,4.46.38l17.18-10.07c1.55-.91,2.11-1.73,1.69-2.46-.12-.2-.31-.34-.59-.42-.19.5-.51.89-.96,1.15-.51.3-1.06.38-1.64.23-.58-.15-1.02-.46-1.31-.96-.23-.38-.32-.76-.3-1.15.07-.8.43-1.39,1.09-1.78,1.61-.95,3.03-.37,4.27,1.75.91,1.54,1.22,2.98.93,4.3.98-.02,1.78.49,2.39,1.53.12.2.27.49.46.88.19.39.34.68.46.88-1.12-1.3-2.58-1.42-4.37-.36l-13.45,7.84Z"/>
        <path class="cls-3" d="m572.66,335.32c.21.3.4.62.56.96.45.96.83,2.58,1.14,4.86s.71,3.94,1.2,4.98c.75,1.61,1.99,2.75,3.71,3.43-3.79.39-6.22-.56-7.3-2.88-.6-1.28-.79-3.16-.58-5.63.21-2.47.26-3.84.13-4.11-.08-.17-.21-.27-.38-.28l-4.06-.69c.7,2.63,1.41,6.31,2.14,11.05.04.7.08,1.41.13,2.14-.08.97-.5,1.86-1.25,2.68l-11.87,5.54c-1.95.91-2.67,2.19-2.17,3.84-.09-.19-.27-.5-.52-.93-.26-.42-.44-.75-.55-.98-.5-1.07-.46-2,.12-2.78-1.29-.58-2.33-1.72-3.11-3.4-.6-1.28-.73-2.31-.39-3.1.29-.72.76-1.23,1.4-1.52.72-.33,1.44-.3,2.16.11.36.25.62.56.79.92.26.56.27,1.12.05,1.71-.23.58-.61,1-1.14,1.25-.48.22-1,.27-1.57.14-.08.3-.07.55.03.76.37.79,1.41.79,3.13,0l11.65-5.47c.54-.72.63-2.93.28-6.63-.33-3.5-.78-6.06-1.36-7.67l7.66,1.7Z"/>
        <path class="cls-3" d="m582.22,356.92c.19.31.35.65.49,1,.37.99.64,2.63.79,4.93.15,2.3.42,3.99.83,5.05.63,1.65,1.78,2.89,3.45,3.7-3.81.12-6.16-1.02-7.07-3.4-.5-1.32-.56-3.21-.17-5.66.39-2.45.54-3.82.43-4.09-.07-.18-.19-.28-.36-.3l-4-.98c.5,2.68.94,6.4,1.33,11.17-.01.7-.02,1.42-.03,2.14-.15.96-.63,1.82-1.45,2.58l-12.24,4.66c-2.01.76-2.82,1.99-2.44,3.67-.07-.2-.23-.52-.45-.96-.23-.44-.39-.78-.48-1.02-.42-1.1-.31-2.03.32-2.76-1.24-.68-2.2-1.88-2.86-3.62-.5-1.32-.56-2.36-.17-3.12.34-.69.85-1.17,1.5-1.42.74-.28,1.45-.19,2.14.27.34.28.58.6.72.98.22.57.19,1.14-.07,1.7-.27.56-.68.95-1.23,1.16-.49.19-1.02.2-1.58.03-.1.28-.11.54-.03.76.31.81,1.35.88,3.12.23l12.02-4.61c.59-.68.84-2.87.77-6.59-.07-3.51-.34-6.1-.8-7.75l7.51,2.25Z"/>
        <path class="cls-3" d="m589.53,395.36c1.23-.32,1.96-1.33,2.2-3,.17-1.25.07-2.56-.3-3.95-.38-1.43-.96-2.62-1.74-3.6-1.03-1.32-2.19-1.8-3.49-1.46l-18.69,5.03c-.57.33-.95.79-1.13,1.38-.16.5-.17,1.04-.02,1.61.11.41.27.69.5.85.34-.44.76-.73,1.27-.86.57-.15,1.13-.08,1.66.23.53.31.87.73,1.02,1.28.1.37.09.76-.03,1.19-.32.76-.85,1.24-1.59,1.44-1.91.51-3.22-.59-3.94-3.31-.42-1.59-.58-2.82-.47-3.7.17-.55.33-1.1.48-1.67-.92-.23-1.64-1.43-2.14-3.58.68,1.17,2.02,1.49,4.03.96l19-5.14s.07,0,.07.01c1.75-.59,2.72-1.77,2.91-3.52.13.4.24.77.32,1.09.43,1.61.31,2.88-.35,3.82,1.77,1.21,3.16,3.68,4.15,7.41,1.01,3.81,1.04,6.72.07,8.72,1,.37,1.71,1.29,2.1,2.78.12.45.23.97.32,1.58-1.09-1.61-2.5-2.19-4.24-1.72l-18.35,4.88c-1.02.27-1.67.96-1.94,2.06-.25.87-.23,1.84.06,2.9.28,1.06.74,1.92,1.37,2.58.79.84,1.69,1.12,2.71.85l18.23-4.84c2.27-.6,3.41-1.57,3.42-2.9.2.6.34,1.03.41,1.3.35,1.3.18,2.26-.5,2.85.59.17,1.06.61,1.41,1.33.2.43.49,1.33.86,2.72-.42-1.57-1.88-2.01-4.37-1.33l-19.32,5.23c-1.74.46-2.42,1.42-2.03,2.86.09.35.27.62.52.81.35-.46.79-.76,1.3-.9.59-.16,1.14-.09,1.66.21.51.3.84.73.99,1.31.11.41.1.8-.03,1.18-.24.72-.74,1.18-1.51,1.38-1.85.49-3.1-.53-3.78-3.06-.61-2.28-.43-3.97.53-5.05-.28-.3-.71-.76-1.29-1.39-.88-1.01-1.57-2.45-2.07-4.33-.63-2.37-.6-4.77.09-7.23-1.11-.25-1.83-1-2.16-2.24-.15-.55-.22-1.21-.22-1.97.24,1.51,1.43,2.1,3.57,1.77l18.47-4.84Z"/>
        <path class="cls-3" d="m604.09,399.01l7.25,3.26c-1.1,3.53-1.86,6.61-2.28,9.25l.32-.06c2.41-.47,4.04-.39,4.88.24.42.31.95,1.31,1.59,3.01-.56-.34-1.54-.42-2.93-.23-.95.17-1.9.33-2.85.49l-1.39.27c-.03.99-.03,1.86,0,2.61-1.33-2.1-2.17-4.08-2.53-5.92-.6-3.06.11-5.96,2.12-8.7l-3.1-1.45c-.94,1.49-1.45,3.26-1.55,5.3-.04,1.04.09,2.9.39,5.6-.64-1.66-1.09-3.16-1.35-4.51-.66-3.37-.18-6.42,1.43-9.14Z"/>
      </g>
      <g>
        <path class="cls-3" d="m200.28,518.56l.13.11c.1,1.91.21,3.4.31,4.48.11,1.18.3,2.76.56,4.75.09.73.15,1.27.18,1.59.25,2.63-.11,4.48-1.06,5.52-.96,1.05-2.15,1.64-3.58,1.78-.95.09-1.91-.06-2.88-.43-.97-.38-1.82-.98-2.56-1.81-.74-.83-1.36-2.02-1.85-3.58-.39.33-1.1.93-2.13,1.78l-3.02,2.54c-.98.81-2.02,1.69-3.12,2.62-1.1.93-1.72,1.53-1.85,1.78-.13.25-.21.47-.23.64-.02.17-.02.45.02.83l-.13.13-.77.07-.16-.13c0-.51-.02-1.1-.08-1.78-.07-.74-.17-1.55-.31-2.43.86-.8,2.4-2.08,4.62-3.84,2.55-2.04,4.77-4,6.64-5.87l-.19-1.97.91-.09.17,1.83c.07.54.12.96.15,1.24.17,1.8.77,3.17,1.81,4.11,1.04.94,2.4,1.33,4.07,1.17,1.5-.14,2.6-.71,3.28-1.7.68-.99.95-2.27.8-3.84-.1-1.08-.37-2.09-.81-3.03-.26-.13-2.4,0-6.42.37l-7.88.75-3.37.34c-1.27.12-2.1.23-2.46.32-.37.09-.61.19-.73.29-.13.1-.22.3-.28.59-.06.3-.06.99.01,2.08l-.1.16-.83.08-.16-.13s-.05-.95-.14-2.74c-.05-.76-.1-1.33-.13-1.72-.03-.33-.22-1.83-.57-4.49l.13-.13.83-.08.13.11c.13.96.25,1.61.35,1.93.11.32.22.53.33.62.11.08.35.15.72.2.37.04,1.16,0,2.38-.11l3.6-.31,7.88-.74,3.34-.34c1.29-.14,2.12-.25,2.49-.34.37-.08.61-.17.74-.27.13-.1.21-.3.26-.6.05-.3.05-1,0-2.11l.1-.13.83-.08Z"/>
        <path class="cls-3" d="m182.74,545.24l4.21,1.09,11.32,2.83c2.22.53,4.43,1.04,6.64,1.55l.17,1.07-16.1,9.94-2.14,1.32c-.61.39-1.27.83-1.98,1.31-.71.48-1.12.8-1.24.97-.12.17-.2.36-.24.57-.04.22,0,.68.11,1.39l-.12.14-.9.15-.13-.1c-.1-1.21-.22-2.27-.37-3.19l-.42-2.03c1.41-.72,2.31-1.19,2.7-1.41l4.91-2.9-1.57-9.67-4.7-1.07c-.85-.2-1.45-.27-1.81-.21-.28.05-.47.23-.57.54-.1.31-.04,1.08.16,2.31l-.12.17-.9.15-.13-.1c-.16-1.45-.32-2.71-.5-3.79l-.47-2.38c1.48.55,2.88,1,4.2,1.36Zm6.98,3.48l1.29,7.98,9.74-5.66-11.03-2.31Z"/>
        <path class="cls-3" d="m190.05,595.8l-.09.11-.84.2-.14-.09-1.25-5.31,16.09-7.11-18.36-.66-.2-.82,15.18-10.04c-9.69,1.24-14.63,1.94-14.83,2.09-.2.14-.33.35-.38.6-.06.25.04.93.29,2.03l-.11.15-.81.2-.17-.11-.18-.88c-.17-.94-.33-1.74-.49-2.4-.07-.3-.38-1.4-.91-3.29l.09-.14.81-.2.2.07c.27,1.02.47,1.64.61,1.85.14.22.34.35.59.41.25.06,7.99-.85,23.23-2.74l.14.57-17.71,11.79,20.69.55.15.62c-14.07,6.44-21.21,9.74-21.42,9.9-.21.15-.34.35-.4.61-.06.25.03.93.26,2.04Z"/>
        <path class="cls-3" d="m212.34,591.23l.1-.15.82-.26.14.08c.46,1.77.84,3.13,1.14,4.08.11.35.6,1.74,1.47,4.15.29.79.49,1.35.6,1.71.43,1.35.62,2.48.58,3.38-.04.9-.37,1.71-.97,2.43-.6.72-1.39,1.24-2.35,1.54-1.24.39-2.51.35-3.81-.12-1.3-.48-2.47-1.56-3.51-3.25.24,1.13.36,2.08.38,2.86.02.78-.11,1.5-.38,2.16-.27.66-.71,1.24-1.32,1.76-.61.52-1.37.92-2.28,1.21-.71.23-1.47.36-2.28.39-.81.03-1.67-.1-2.57-.41-.9-.31-1.73-.76-2.49-1.37-.76-.61-1.39-1.28-1.87-2.01-.48-.73-.92-1.71-1.3-2.91-.08-.24-.28-.99-.61-2.23-.41-1.34-.62-2.07-.66-2.18-.22-.68-.52-1.52-.91-2.49l.07-.17.55-.17.21.09c.47.48.78.76.92.81.14.06,1.14-.18,3.01-.71,1.87-.53,3.29-.95,4.28-1.27l6.07-1.92,3.77-1.19c.82-.26,1.48-.49,2-.68.51-.19.87-.34,1.08-.43.21-.1.35-.2.41-.31.06-.11.1-.25.11-.42,0-.17-.02-.43-.07-.8l-.29-1.2Zm-18.81,11.9c.04.84.2,1.67.46,2.48.46,1.45,1.07,2.5,1.84,3.16.77.66,1.67,1.05,2.7,1.15,1.02.11,2.07-.01,3.12-.34,1.6-.51,2.75-1.33,3.45-2.45.69-1.13.61-3.07-.27-5.84-.14-.45-.34-.99-.6-1.62l-5.66,1.79-5.04,1.66Zm12.09-3.89c.11.54.26,1.12.46,1.75.66,2.09,1.54,3.42,2.62,3.99,1.08.56,2.33.62,3.75.17.84-.27,1.5-.65,1.98-1.15.48-.5.77-1.14.87-1.92.1-.77-.04-1.74-.4-2.88-.3-.95-.65-1.75-1.04-2.43-1.03.23-2.79.73-5.26,1.51l-2.98.94Z"/>
        <path class="cls-3" d="m218.76,609.66c.9,2.51,1.41,3.92,1.53,4.23.13.32.37.85.72,1.57-1.9.61-3.23,1.07-3.99,1.37l-3.68,1.44-2.21.88c.8,2.15,1.58,4.19,2.34,6.1,1.04,2.6,1.86,4.57,2.45,5.9l2.21-.88,3.1-1.27c1.23-.49,2.71-1.12,4.47-1.88.2.71.37,1.22.49,1.53.14.34.74,1.72,1.81,4.15l-.06.15-.8.32-.15-.06c-.29-.68-.53-1.19-.72-1.53-.19-.34-.37-.57-.55-.69-.18-.11-.5-.11-.96,0s-1.07.33-1.83.64l-3.7,1.41-7.32,2.92-3.09,1.3c-1.21.48-1.97.82-2.3,1.01-.32.2-.53.36-.61.49-.08.14-.11.35-.1.64.01.29.21.96.59,2.03l-.06.15-.77.31-.18-.06c-.91-2.53-1.42-3.95-1.54-4.25-.12-.31-.33-.79-.61-1.45,1.65-.62,3.04-1.15,4.18-1.61l3.39-1.32,3.6-1.44c-1.08-2.9-1.85-4.93-2.31-6.08-.48-1.19-1.3-3.17-2.48-5.92l-3.6,1.44-3.1,1.27c-1.21.48-1.97.82-2.3,1.01-.32.19-.53.36-.61.49-.08.14-.11.35-.1.65s.21.97.59,2.01l-.06.15-.77.31-.18-.06c-.9-2.51-1.41-3.92-1.53-4.23-.12-.31-.72-1.68-1.8-4.12l.09-.16.77-.31.15.06c.39.89.69,1.47.88,1.74.19.27.35.44.49.5.14.06.38.06.74,0,.36-.06,1.1-.32,2.24-.77l3.39-1.33,7.32-2.92,3.1-1.27c1.22-.51,1.99-.85,2.32-1.04.33-.18.53-.34.61-.48.08-.14.11-.35.08-.65-.02-.29-.22-.96-.6-2l.06-.15.8-.32.15.07Z"/>
        <path class="cls-3" d="m211.53,645.2l4.34-.23,11.65-.73c2.27-.17,4.54-.34,6.8-.53l.49.96-12.34,14.35-1.64,1.91c-.46.56-.96,1.18-1.49,1.85-.53.67-.82,1.1-.89,1.3-.06.2-.08.4-.06.62s.2.65.52,1.29l-.07.17-.82.41-.16-.05c-.46-1.12-.9-2.09-1.32-2.93l-1.01-1.81c1.13-1.11,1.84-1.83,2.15-2.17l3.8-4.24-4.42-8.75-4.81.4c-.87.07-1.46.18-1.78.35-.26.13-.38.36-.38.68,0,.33.29,1.04.85,2.15l-.06.2-.82.42-.16-.06c-.59-1.33-1.13-2.49-1.62-3.46l-1.17-2.12c1.58.08,3.05.08,4.41.03Zm7.71,1.2l3.65,7.21,7.57-8.34-11.22,1.13Z"/>
        <path class="cls-3" d="m240.59,657.06l.9,1.7c.61,1.1,1.02,1.83,1.23,2.19.18.3.97,1.55,2.38,3.75l-.05.2-.72.42-.17-.06c-.37-.59-.68-1.05-.92-1.36-.24-.31-.46-.51-.65-.59-.2-.09-.51-.04-.93.14-.42.18-.99.48-1.7.9l-3.4,1.97-6.74,3.98-2.86,1.69c-1.09.67-1.79,1.12-2.08,1.35-.3.23-.47.42-.52.58-.05.15-.05.37.02.65.06.28.35.9.85,1.86v.17l-.74.44-.17-.07s-.45-.82-1.3-2.38c-.36-.65-.64-1.15-.85-1.5-.17-.28-.95-1.54-2.35-3.76l.02-.18.74-.44.15.08c.53.79.91,1.31,1.13,1.55s.4.38.55.42c.14.04.39,0,.73-.13.34-.12,1.03-.48,2.08-1.07l3.11-1.83,6.74-3.98,2.85-1.72c1.12-.66,1.83-1.1,2.12-1.34.3-.23.47-.42.52-.58.05-.16.05-.37-.02-.65-.07-.28-.36-.9-.88-1.86l.02-.18.72-.42.2.06Z"/>
        <path class="cls-3" d="m256.1,682.61l.04-.18.68-.54.16.02c1.06,1.49,1.89,2.63,2.5,3.41.23.29,1.17,1.41,2.84,3.37.55.63.93,1.1,1.16,1.38.88,1.12,1.45,2.11,1.73,2.96.28.86.26,1.73-.05,2.62-.31.89-.86,1.65-1.66,2.27-1.02.8-2.23,1.21-3.61,1.23-1.39.02-2.86-.59-4.43-1.81.62.97,1.07,1.82,1.37,2.55.29.72.42,1.44.4,2.15-.02.71-.23,1.42-.61,2.11-.39.7-.95,1.35-1.71,1.94-.59.46-1.25.85-2,1.17-.75.31-1.6.49-2.55.52-.95.03-1.89-.11-2.82-.4-.93-.3-1.75-.7-2.46-1.22-.71-.52-1.46-1.27-2.24-2.27-.16-.2-.61-.82-1.36-1.86-.85-1.11-1.31-1.71-1.38-1.8-.45-.56-1.02-1.24-1.73-2.01v-.19s.45-.36.45-.36h.23c.61.29.99.44,1.14.45.15,0,1.01-.57,2.57-1.72,1.56-1.15,2.75-2.05,3.56-2.69l5-3.93,3.11-2.45c.68-.54,1.22-.98,1.63-1.34.41-.36.69-.62.86-.79.16-.16.25-.31.27-.44.02-.13,0-.27-.04-.43s-.17-.4-.35-.73l-.69-1.02Zm-13.42,17.76c.34.77.78,1.49,1.3,2.17.94,1.19,1.89,1.97,2.84,2.31.96.35,1.93.39,2.93.13,1-.26,1.93-.74,2.8-1.43,1.32-1.04,2.11-2.21,2.36-3.51.25-1.3-.52-3.09-2.31-5.37-.29-.37-.67-.8-1.13-1.3l-4.66,3.67-4.13,3.33Zm9.94-7.9c.29.46.64.96,1.05,1.47,1.36,1.73,2.64,2.67,3.85,2.82,1.21.15,2.4-.24,3.57-1.16.69-.54,1.17-1.13,1.45-1.77.28-.64.32-1.34.14-2.09-.18-.76-.65-1.61-1.4-2.56-.61-.78-1.22-1.41-1.83-1.9-.89.57-2.35,1.66-4.39,3.27l-2.45,1.93Z"/>
        <path class="cls-3" d="m254.92,712.55l4.09-1.49,10.94-4.07c2.12-.82,4.24-1.65,6.35-2.48l.75.78-7.65,17.31-1.01,2.3c-.28.68-.58,1.41-.89,2.2-.31.79-.47,1.3-.47,1.5,0,.2.04.41.12.61.09.2.38.56.88,1.08l-.02.19-.66.63h-.16c-.76-.94-1.47-1.75-2.11-2.43l-1.49-1.44c.76-1.39,1.23-2.29,1.43-2.7l2.4-5.16-6.77-7.09-4.48,1.78c-.81.31-1.35.6-1.61.85-.21.2-.26.45-.16.76.1.31.58.92,1.44,1.82v.2s-.67.63-.67.63h-.16c-.95-1.11-1.8-2.06-2.56-2.85l-1.74-1.69c1.53-.39,2.94-.81,4.23-1.26Zm7.73-1.09l5.58,5.84,4.83-10.18-10.41,4.34Z"/>
        <path class="cls-3" d="m285.55,715.26h.16c1.41,1.27,2.54,2.26,3.37,2.96.91.76,2.16,1.76,3.74,2.99.58.46.99.79,1.25,1.01,2.03,1.7,3.07,3.26,3.13,4.68.06,1.41-.38,2.68-1.3,3.78-.61.73-1.4,1.3-2.35,1.72-.95.41-1.99.58-3.09.51-1.11-.07-2.39-.48-3.83-1.24-.05.51-.14,1.43-.27,2.77l-.36,3.92c-.12,1.27-.25,2.62-.38,4.06-.13,1.44-.15,2.3-.06,2.57.09.27.18.48.29.61.1.14.3.33.6.58v.19s-.5.59-.5.59l-.2.02c-.35-.37-.79-.77-1.31-1.21-.57-.48-1.21-.98-1.93-1.51.05-1.18.25-3.17.59-5.98.38-3.24.58-6.19.6-8.85l-1.52-1.27.59-.7,1.41,1.18c.43.34.76.6.98.79,1.39,1.16,2.78,1.71,4.18,1.65,1.4-.06,2.64-.74,3.72-2.03.97-1.16,1.35-2.33,1.14-3.52-.21-1.19-.92-2.28-2.13-3.3-.83-.7-1.73-1.23-2.7-1.59-.28.09-1.71,1.68-4.3,4.77l-5.08,6.07-2.15,2.61c-.82.98-1.33,1.64-1.52,1.96-.19.32-.3.56-.32.72-.02.16.06.37.22.62.17.25.66.75,1.47,1.47l.04.18-.53.64-.2.02s-.7-.64-2.03-1.85c-.57-.51-1-.88-1.3-1.13-.25-.21-1.44-1.14-3.56-2.79v-.19s.54-.64.54-.64h.16c.77.58,1.31.96,1.61,1.11.3.16.52.22.67.2s.36-.14.65-.37.83-.81,1.62-1.75l2.34-2.75,5.08-6.06,2.13-2.59c.82-1.01,1.33-1.67,1.53-1.99.2-.32.31-.56.33-.71.02-.16-.06-.36-.23-.61-.17-.25-.67-.75-1.48-1.5v-.16s.52-.64.52-.64Z"/>
        <path class="cls-3" d="m288.73,749.05l-.02-.19.42-.65.18-.06c.48.29.89.5,1.21.63.32.13.57.16.74.09.17-.07.37-.25.59-.54.22-.29.69-.94,1.4-1.95.71-1.01,1.21-1.75,1.51-2.21l9.08-14.07c.85.58,1.55,1.01,2.08,1.29l-.09,8.36.03,12.01c0,1.46.04,2.87.13,4.23l7.21-11.04c.23-.35.7-1.1,1.41-2.23.71-1.13,1.14-1.86,1.29-2.19.15-.32.22-.57.19-.75-.03-.17-.16-.37-.39-.6-.24-.23-.59-.5-1.05-.82l-.02-.19.42-.65.18-.06c.6.46,1.5,1.08,2.69,1.86,1.07.7,1.86,1.18,2.37,1.44l.04.2-.42.65-.18.06c-.53-.33-.96-.55-1.27-.66-.32-.12-.56-.13-.72-.04-.16.09-.35.26-.57.52-.21.26-.67.9-1.37,1.92-.7,1.02-1.2,1.76-1.52,2.24l-4.42,6.77-2.56,3.91c-.83,1.31-1.55,2.43-2.15,3.35l-2.08-1.35.06-1.74-.06-5.35-.09-17.32-7.15,10.94c-.29.45-.79,1.24-1.5,2.38-.71,1.13-1.12,1.84-1.23,2.1-.12.27-.18.46-.18.59s.08.3.24.51c.16.22.56.55,1.2.99l.02.18-.42.65-.18.06c-.38-.34-1.02-.8-1.92-1.39-1.17-.76-2.22-1.4-3.14-1.91Z"/>
        <path class="cls-3" d="m321.87,741.32l1.67.96c1.1.62,1.84,1.02,2.2,1.21.31.16,1.64.8,4,1.92l.06.2-.38.74-.18.03c-.63-.31-1.13-.53-1.5-.67-.37-.14-.66-.19-.87-.16-.21.03-.45.23-.71.62-.26.38-.59.93-.96,1.66l-1.84,3.47-3.61,6.94-1.54,2.95c-.57,1.15-.92,1.89-1.05,2.25-.13.35-.17.61-.14.77.04.16.16.34.36.54.2.2.77.58,1.71,1.13l.09.14-.4.76-.18.03s-.82-.46-2.37-1.32c-.65-.36-1.15-.63-1.51-.82-.29-.15-1.62-.8-3.99-1.95l-.08-.17.4-.76h.17c.87.38,1.47.62,1.78.7.32.09.55.11.69.07.14-.04.32-.21.55-.49.22-.28.62-.96,1.19-2.01l1.66-3.21,3.61-6.94,1.51-2.96c.6-1.15.96-1.91,1.09-2.26.13-.35.17-.61.14-.77-.04-.16-.16-.34-.36-.54-.2-.2-.78-.57-1.73-1.1l-.08-.17.38-.74.2-.06Z"/>
        <path class="cls-3" d="m348.32,753.51l.14-.08c1.82.55,3.26.97,4.32,1.24,1.15.3,2.7.67,4.66,1.1.72.17,1.24.29,1.56.38,2.56.67,4.17,1.63,4.82,2.89.66,1.26.8,2.58.44,3.97-.24.93-.7,1.78-1.39,2.56-.69.78-1.54,1.37-2.58,1.78-1.03.41-2.36.58-3.99.51.18.48.49,1.35.95,2.62l1.35,3.7c.43,1.2.9,2.48,1.4,3.83.5,1.35.85,2.14,1.05,2.34.2.21.37.36.52.43.15.08.41.17.79.27l.08.17-.2.75-.18.1c-.48-.19-1.04-.36-1.7-.54-.72-.19-1.51-.37-2.39-.54-.46-1.09-1.13-2.97-2.02-5.65-1.04-3.1-2.12-5.85-3.24-8.26l-1.92-.5.23-.89,1.78.47c.53.12.94.21,1.22.29,1.75.45,3.24.36,4.48-.3,1.24-.65,2.07-1.8,2.49-3.42.38-1.46.22-2.68-.48-3.67-.7-.98-1.81-1.67-3.33-2.07-1.05-.27-2.09-.37-3.12-.28-.21.2-.83,2.25-1.85,6.15l-2,7.65-.83,3.28c-.32,1.24-.5,2.05-.54,2.42-.04.37-.03.64.02.79.05.15.21.31.47.46.26.16.91.39,1.96.71l.11.15-.21.8-.18.1s-.91-.28-2.62-.8c-.73-.21-1.28-.37-1.66-.46-.32-.09-1.79-.42-4.41-1.01l-.08-.17.21-.81.14-.08c.95.21,1.59.32,1.93.33.34,0,.57-.03.69-.1.12-.08.26-.28.43-.61.17-.33.41-1.09.71-2.27l.94-3.49,2-7.66.82-3.25c.31-1.26.49-2.08.54-2.45.05-.37.05-.64,0-.79-.05-.15-.21-.3-.47-.45-.26-.15-.92-.39-1.98-.73l-.09-.14.21-.8Z"/>
        <path class="cls-3" d="m368.41,779.09l2.13-3.79,5.64-10.22c1.08-2,2.14-4.01,3.2-6.02l1.07.11,5.48,18.11.73,2.41c.22.69.48,1.44.76,2.25.28.8.49,1.29.62,1.44.13.16.3.28.49.38.2.1.65.18,1.37.25l.1.15-.09.91-.13.1c-1.19-.21-2.25-.37-3.18-.46l-2.07-.11c-.34-1.55-.56-2.54-.67-2.98l-1.54-5.48-9.76-.96-2.24,4.27c-.41.77-.63,1.33-.66,1.69-.03.28.1.51.37.68.28.17,1.03.32,2.27.44l.13.16-.09.91-.13.11c-1.44-.22-2.71-.39-3.79-.49l-2.42-.15c.91-1.29,1.71-2.53,2.39-3.71Zm5.15-5.86l8.04.79-2.97-10.87-5.07,10.07Z"/>
        <path class="cls-3" d="m405.09,760.42l.04.97-.11.15c-.85.07-1.5.14-1.93.2-.44.07-.76.17-.97.31-.21.14-.33.48-.37,1.02-.04.54-.04,1.27,0,2.21l.11,4.53.43,11.52c.08,2.06-.03,3.75-.31,5.08-.28,1.32-.74,2.52-1.38,3.61-.64,1.09-1.45,1.92-2.43,2.49-.98.57-2.21.92-3.68,1.05l-.07-1.17c1.39-.24,2.45-.68,3.16-1.31.72-.63,1.14-1.15,1.27-1.57.13-.42.19-1.18.19-2.29,0-1.11-.02-2.05-.05-2.81l-.54-14.47-.17-3.84c-.07-1.47-.15-2.43-.22-2.86-.08-.44-.17-.73-.28-.86-.11-.14-.33-.25-.66-.32-.32-.07-1.13-.11-2.41-.12l-.12-.14-.04-.97.11-.15c3.04,0,4.76,0,5.17-.02.43-.02,2.14-.14,5.15-.37l.12.14Z"/>
        <path class="cls-3" d="m412.82,780.15l1.04-4.23,2.69-11.36c.5-2.22.99-4.44,1.47-6.66l1.06-.19,10.14,15.98,1.35,2.12c.4.61.85,1.26,1.33,1.96.49.7.82,1.11.99,1.23.17.11.36.19.57.23.21.04.68,0,1.38-.13l.14.12.16.9-.1.14c-1.2.11-2.27.25-3.19.41l-2.03.44c-.74-1.41-1.22-2.3-1.45-2.69l-2.95-4.87-9.66,1.69-1.01,4.72c-.19.85-.25,1.45-.19,1.81.05.28.23.47.54.56.31.09,1.08.03,2.31-.18l.17.11.16.9-.1.13c-1.45.18-2.71.36-3.78.55l-2.37.5c.53-1.49.96-2.9,1.31-4.22Zm3.39-7.02l7.96-1.39-5.78-9.67-2.18,11.06Z"/>
        <path class="cls-3" d="m431.81,756.62l-.16-.1-.27-.82.07-.14c1.77-.48,3.12-.88,4.06-1.19.35-.12,1.73-.62,4.14-1.52.78-.3,1.35-.51,1.7-.62,1.35-.45,2.47-.65,3.38-.62.9.03,1.72.35,2.45.94.73.59,1.25,1.37,1.57,2.33.41,1.24.38,2.51-.08,3.81-.46,1.31-1.53,2.49-3.2,3.55,1.13-.25,2.08-.39,2.86-.42.78-.03,1.5.09,2.16.36.66.26,1.26.7,1.78,1.3.52.6.94,1.35,1.24,2.26.24.71.37,1.47.42,2.28.04.81-.08,1.67-.38,2.57-.3.9-.74,1.74-1.34,2.51-.59.77-1.26,1.4-1.99,1.89-.73.49-1.69.93-2.89,1.33-.24.08-.98.29-2.21.64-1.34.42-2.06.65-2.17.69-.68.23-1.51.54-2.48.94l-.17-.06-.18-.55.09-.21c.48-.48.74-.79.8-.93.06-.14-.19-1.14-.75-3-.55-1.86-.99-3.28-1.32-4.26l-2-6.04-1.24-3.76c-.27-.82-.51-1.48-.7-1.99-.2-.51-.35-.87-.45-1.07s-.21-.34-.32-.41c-.11-.06-.25-.1-.42-.1-.17,0-.43.02-.8.08l-1.19.3Zm8.09,6.63c.54-.11,1.12-.28,1.75-.48,2.09-.69,3.4-1.58,3.96-2.67.55-1.09.59-2.34.13-3.76-.28-.83-.67-1.49-1.17-1.97-.51-.48-1.15-.76-1.92-.85-.78-.09-1.74.06-2.88.44-.94.31-1.75.67-2.41,1.07.24,1.03.76,2.77,1.58,5.24l.98,2.97Zm4.04,12.04c.84-.06,1.67-.22,2.48-.49,1.44-.48,2.49-1.1,3.14-1.89.65-.78,1.03-1.68,1.12-2.71.09-1.02-.04-2.06-.39-3.12-.53-1.6-1.36-2.74-2.5-3.41-1.14-.68-3.08-.57-5.83.34-.44.15-.98.36-1.61.62l1.86,5.63,1.72,5.02Z"/>
        <path class="cls-3" d="m449.58,750.24c2.43-1.1,3.79-1.72,4.09-1.87.31-.15.81-.44,1.5-.84.76,1.84,1.33,3.13,1.69,3.86l1.74,3.55,1.06,2.13c2.08-.97,4.04-1.92,5.89-2.84,2.51-1.24,4.4-2.22,5.68-2.92l-1.06-2.13-1.52-2.99c-.59-1.18-1.33-2.62-2.24-4.3.69-.26,1.19-.46,1.49-.61.33-.16,1.66-.88,3.99-2.14l.16.05.38.77-.05.15c-.65.35-1.14.63-1.47.85s-.54.42-.64.61c-.1.19-.07.51.08.95.16.45.42,1.04.78,1.77l1.71,3.57,3.51,7.06,1.55,2.98c.58,1.16.98,1.9,1.2,2.21.22.31.4.49.54.56.14.07.36.09.64.05.29-.04.94-.29,1.97-.76l.16.05.37.75-.04.18c-2.44,1.11-3.82,1.74-4.11,1.89-.3.15-.76.39-1.4.73-.75-1.59-1.4-2.93-1.94-4.03l-1.59-3.27-1.73-3.47c-2.8,1.31-4.76,2.24-5.87,2.8-1.15.57-3.05,1.56-5.7,2.96l1.72,3.47,1.52,2.99c.58,1.16.98,1.9,1.2,2.21.22.31.4.49.54.56.14.07.36.08.66.04.3-.04.95-.29,1.96-.75l.16.05.37.75-.04.18c-2.43,1.1-3.79,1.73-4.09,1.87-.3.15-1.62.86-3.96,2.13l-.17-.08-.37-.74.05-.16c.85-.47,1.41-.81,1.66-1.02.25-.21.41-.39.45-.53.05-.14.03-.39-.06-.74-.09-.35-.4-1.07-.95-2.17l-1.59-3.27-3.51-7.06-1.52-2.99c-.6-1.17-1.01-1.91-1.22-2.23-.21-.31-.38-.5-.53-.57-.14-.07-.36-.08-.65-.03-.29.05-.94.31-1.95.76l-.16-.05-.38-.77.05-.16Z"/>
        <path class="cls-3" d="m485.99,753.97l-.85-4.27-2.37-11.43c-.49-2.22-.98-4.44-1.49-6.66l.89-.62,15.95,10.18,2.12,1.35c.62.38,1.3.79,2.04,1.21.74.43,1.21.66,1.41.69.2.03.41.03.62-.03.21-.06.61-.29,1.2-.7l.18.05.52.75-.03.16c-1.04.61-1.95,1.19-2.71,1.72l-1.65,1.26c-1.26-.96-2.08-1.57-2.45-1.82l-4.74-3.16-8.03,5.62,1.08,4.7c.19.85.39,1.42.59,1.72.17.23.41.33.73.28.32-.05.99-.43,2.01-1.14l.2.03.52.75-.03.16c-1.24.77-2.3,1.47-3.2,2.09l-1.93,1.46c-.15-1.58-.35-3.03-.6-4.37Zm.1-7.8l6.62-4.63-9.33-6.32,2.71,10.95Z"/>
        <path class="cls-3" d="m506.99,710.9l.14.42c-.2,1.71-.93,3.26-2.19,4.64l-2.23,2.14c1.42,1.71,2.26,2.71,2.52,3.01l6.71,7.54,2.27,2.51c.86.97,1.45,1.58,1.74,1.85.3.26.52.39.68.41.16.01.37-.04.65-.17.28-.13.85-.55,1.73-1.26h.14s.57.63.57.63v.19c-2.09,1.74-3.26,2.72-3.51,2.94-.26.23-1.37,1.28-3.33,3.15l-.18-.03-.57-.64.03-.14c.72-.72,1.17-1.21,1.37-1.47.2-.26.3-.47.32-.63.02-.16-.07-.39-.25-.72-.18-.32-.68-.94-1.49-1.86l-2.42-2.76-6.71-7.53c-.11-.13-1.02-1.07-2.72-2.84-1.16.96-2.18,1.88-3.06,2.76-.89.89-1.31,1.44-1.28,1.66.03.21.44,1.2,1.23,2.96l-.42.41c-1.86-2.2-3.09-3.72-3.69-4.54,1.44-1.07,3.78-3.06,7.01-5.94,3.3-2.93,5.61-5.16,6.94-6.68Z"/>
        <path class="cls-3" d="m521.19,696.29l-.02-.16c1.64-2,2.58-3.17,2.83-3.49.21-.28,1.1-1.49,2.65-3.64l.16-.02.68.53.02.16c-.42.58-.73,1.04-.93,1.38-.2.34-.31.62-.32.84-.01.23.14.5.47.82.33.33.82.74,1.47,1.24l3.1,2.42,4.32,3.32c1.41,1.09,2.47,1.86,3.18,2.31.71.46,1.36.77,1.95.95.59.17,1.2.2,1.81.09.62-.11,1.29-.43,2.02-.95.73-.52,1.42-1.21,2.07-2.06.7-.91,1.22-1.86,1.55-2.87.34-1.01.4-1.92.18-2.73-.22-.82-.7-1.62-1.45-2.4-.75-.78-1.88-1.76-3.39-2.92l-4.18-3.22c-.7-.53-1.67-1.27-2.92-2.19-1.25-.93-2-1.43-2.25-1.49-.25-.07-.5-.03-.75.11-.25.14-.75.68-1.5,1.62l-.2.03-.63-.49-.03-.2c1-1.17,1.78-2.13,2.35-2.87.49-.63,1.2-1.63,2.15-2.99l.18-.05.66.51.03.2c-.58.79-.93,1.32-1.06,1.6-.13.28-.18.5-.16.67s.13.35.29.56c.17.2.74.69,1.71,1.47l3.01,2.39,4.11,3.16c1.65,1.27,2.91,2.32,3.76,3.17.86.85,1.44,1.7,1.73,2.57.3.87.45,1.73.44,2.6,0,.87-.23,1.81-.68,2.84-.45,1.02-1.03,2-1.75,2.93-.89,1.16-1.81,2.07-2.76,2.75-.95.68-1.86,1.1-2.72,1.26-.86.16-1.63.16-2.31,0-.68-.17-1.39-.48-2.13-.96-.74-.47-1.82-1.25-3.24-2.34l-5.2-4-2.65-2c-1.04-.78-1.73-1.26-2.05-1.45-.33-.19-.57-.28-.72-.28-.16,0-.36.09-.6.25-.24.17-.71.69-1.42,1.54l-.16.02-.68-.52Z"/>
        <path class="cls-3" d="m557.05,689.25l-.18.02-.66-.41-.06-.17c.28-.49.49-.89.61-1.22.12-.32.15-.57.08-.74-.07-.17-.25-.37-.55-.58-.29-.22-.95-.67-1.97-1.36s-1.77-1.18-2.24-1.47l-14.23-8.82c.56-.86.98-1.56,1.25-2.11l8.36-.06,12-.26c1.46-.03,2.87-.1,4.22-.21l-11.17-7c-.35-.23-1.11-.68-2.26-1.36-1.15-.69-1.89-1.1-2.21-1.25-.32-.15-.58-.21-.75-.18-.18.03-.37.16-.59.4-.22.24-.49.59-.8,1.06l-.18.03-.66-.41-.06-.17c.45-.61,1.06-1.52,1.81-2.72.68-1.09,1.15-1.89,1.4-2.4l.2-.05.66.41.06.18c-.31.54-.53.96-.64,1.29-.11.32-.12.56-.03.72s.27.34.53.56c.26.21.91.65,1.94,1.33,1.03.68,1.79,1.17,2.27,1.48l6.85,4.29,3.96,2.48c1.32.81,2.45,1.5,3.39,2.09l-1.32,2.1-1.74-.03-5.34.16-17.31.41,11.08,6.94c.45.28,1.26.77,2.4,1.46,1.15.68,1.86,1.08,2.13,1.19.27.11.47.17.59.17.13,0,.3-.09.51-.25.21-.16.54-.57.97-1.22l.18-.02.66.41.06.17c-.33.39-.79,1.04-1.35,1.94-.74,1.19-1.36,2.25-1.86,3.18Z"/>
        <path class="cls-3" d="m548.98,656.05l.99-1.65c.63-1.1,1.05-1.82,1.24-2.18.17-.31.83-1.63,1.99-3.97l.2-.06.73.39.03.18c-.32.63-.55,1.12-.69,1.49-.14.37-.2.65-.18.87.03.21.23.45.6.73.38.27.93.6,1.65.99l3.44,1.89,6.88,3.73,2.92,1.58c1.14.59,1.88.96,2.23,1.09.35.13.61.18.77.15.16-.03.34-.15.55-.35.21-.2.59-.76,1.16-1.69l.15-.09.76.41.03.18s-.47.82-1.37,2.34c-.37.64-.65,1.14-.84,1.5-.16.29-.83,1.61-2.01,3.95l-.17.07-.76-.41v-.17c.4-.87.65-1.46.74-1.77.09-.31.12-.54.08-.68s-.2-.33-.48-.56c-.28-.23-.94-.64-1.99-1.23l-3.18-1.72-6.88-3.72-2.94-1.56c-1.14-.62-1.89-1-2.24-1.13-.35-.14-.61-.19-.77-.15-.16.04-.34.15-.55.35-.2.2-.58.77-1.14,1.71l-.17.07-.73-.39-.06-.2Z"/>
        <path class="cls-3" d="m580.48,647.67c-.52-.07-2.5-.29-5.96-.65l-15.2-1.26c-1.73-.14-2.73-.18-3.01-.13-.28.05-.67.55-1.17,1.49l-.19.07-.73-.34-.07-.19c.75-1.39,1.36-2.58,1.83-3.59.44-.93.97-2.2,1.61-3.79l.19-.07.86.4.02.17c-.52,1.13-.8,1.82-.83,2.08-.03.26.08.44.3.54.12.06.74.17,1.86.32,1.12.16,2.06.27,2.84.33l14.22,1.25-8.37-8.38c-.58-.57-1.52-1.45-2.81-2.65-1.3-1.2-2.1-1.87-2.41-2.01-.26-.12-.48-.09-.67.11-.18.2-.59.85-1.21,1.95l-.19.07-.73-.34-.07-.2c.85-1.6,1.38-2.62,1.58-3.06.17-.37.57-1.34,1.2-2.91l.19-.07.73.34.07.19c-.29.66-.42,1.09-.41,1.27.02.19.12.39.3.61.18.22.84.93,1.96,2.14l9.78,9.9c2.16,2.23,3.88,3.88,5.16,4.95l-.68,1.46Z"/>
        <path class="cls-3" d="m563.47,625.13l-.07-.15c1.38-3.38,2.26-5.56,2.63-6.52,1.26-3.29,2.34-6.21,3.25-8.78l.14-.04c.96.66,2.53,1.47,4.72,2.44l.09.16-.28.74-.19.09c-.08-.06-.17-.1-.26-.13-.93-.36-1.83-.63-2.72-.83-.55.52-1.08,1.32-1.59,2.39-.51,1.07-.88,1.89-1.1,2.45-.31.8-.63,1.83-.97,3.09l2.58,1.05,2.97,1.21,2.76,1.12c1.62-2.98,2.69-5.77,3.24-8.35.73,1.07.76,3.26.06,6.55-.22.58-.54,1.48-.94,2.7.72.32,2.15.89,4.29,1.71,2.28.88,3.97,1.5,5.05,1.88l1.06-2.75c.93-2.43,1.49-3.96,1.66-4.6.17-.63.24-1.27.2-1.91-.21-.19-.74-.56-1.57-1.12-.83-.56-1.35-.9-1.57-1.02l-.06-.18.27-.71.16-.09c.43.27,1.21.67,2.35,1.2,1.14.53,2.12.96,2.94,1.27l.09.16c-.79,1.89-1.77,4.37-2.96,7.46l-1.62,4.06c-.36.94-.7,1.95-1,3.02l-.18.06-.54-.21-.12-.17c-.09-.72-.16-1.14-.21-1.25-.05-.11-.98-.55-2.79-1.3-1.81-.76-3.19-1.32-4.16-1.69l-5.97-2.29-3.72-1.43c-.8-.31-1.46-.55-1.98-.73-.52-.17-.89-.28-1.13-.31-.24-.03-.41-.03-.52,0-.11.03-.23.1-.35.23-.12.12-.26.35-.43.68l-.55,1.1-.15.07-.83-.32Z"/>
        <path class="cls-3" d="m570.85,607.98l-.07-.14c.64-1.8,1.12-3.22,1.45-4.26.35-1.13.79-2.67,1.32-4.6.2-.71.35-1.22.45-1.54.79-2.52,1.83-4.09,3.12-4.68,1.29-.59,2.62-.68,3.98-.25.91.28,1.74.79,2.49,1.51.75.73,1.3,1.61,1.66,2.66.36,1.05.47,2.39.32,4.01.49-.15,1.37-.42,2.66-.82l3.76-1.18c1.22-.37,2.51-.78,3.89-1.21,1.38-.44,2.18-.75,2.4-.93.22-.19.37-.35.46-.5.09-.15.18-.41.3-.78l.17-.07.74.23.09.18c-.21.47-.41,1.02-.61,1.67-.22.7-.44,1.49-.65,2.37-1.11.41-3.02.99-5.74,1.75-3.14.89-5.94,1.84-8.4,2.85l-.59,1.89-.87-.27.55-1.75c.14-.53.26-.93.35-1.21.54-1.72.51-3.22-.08-4.49-.59-1.27-1.69-2.15-3.3-2.65-1.44-.45-2.67-.35-3.68.3-1.02.65-1.76,1.73-2.23,3.23-.32,1.04-.47,2.08-.43,3.1.19.23,2.21.94,6.06,2.14l7.55,2.36,3.24.98c1.22.38,2.02.6,2.39.66s.64.06.79.02c.16-.04.32-.19.48-.45.17-.25.44-.89.8-1.92l.15-.11.79.25.09.18s-.32.9-.93,2.59c-.25.72-.42,1.26-.54,1.63-.1.32-.5,1.77-1.21,4.36l-.17.07-.79-.25-.07-.14c.25-.94.4-1.58.42-1.92.03-.34,0-.57-.07-.7-.07-.12-.27-.28-.59-.46-.32-.18-1.07-.45-2.24-.82l-3.44-1.11-7.55-2.36-3.21-.97c-1.24-.37-2.05-.59-2.42-.65-.37-.06-.63-.08-.79-.03-.15.05-.31.2-.47.45-.16.25-.43.9-.82,1.95l-.14.08-.79-.25Z"/>
        <path class="cls-3" d="m594.81,590.92l-.11-.15.18-.73.17-.08c1.39.28,2.25.42,2.58.42.34,0,.73-.2,1.17-.56.45-.37.87-.9,1.28-1.59.41-.69.71-1.41.9-2.17.27-1.06.29-2.06.07-3-.22-.95-.68-1.75-1.38-2.42-.7-.67-1.56-1.13-2.58-1.38-.7-.17-1.35-.22-1.95-.13-.59.09-1.1.3-1.51.62-.41.32-.76.72-1.05,1.19-.29.48-.65,1.21-1.09,2.18-.41.94-.76,1.68-1.04,2.21-.28.53-.64,1.03-1.07,1.51-.43.47-.92.84-1.46,1.11-.54.26-1.16.42-1.88.48-.71.06-1.44-.01-2.18-.2-2.02-.51-3.52-1.56-4.5-3.17-.98-1.61-1.2-3.5-.65-5.67.22-.87.57-1.78,1.05-2.73.48-.95,1.06-1.79,1.73-2.5l.22-.06c.93.47,2.31.96,4.16,1.46l.08.17-.19.76-.14.09c-1.3-.31-2.13-.48-2.47-.51-.35-.04-.88.31-1.59,1.04-.72.73-1.2,1.6-1.45,2.6-.21.85-.23,1.69-.04,2.52.19.83.63,1.53,1.32,2.1.69.58,1.46.97,2.29,1.18.63.16,1.22.18,1.77.08.55-.11,1.01-.31,1.39-.6.38-.3.7-.67.96-1.12.26-.45.65-1.27,1.17-2.49.72-1.69,1.37-2.88,1.95-3.59.58-.7,1.35-1.2,2.3-1.47.95-.27,2.03-.26,3.21.04,2.3.57,4.01,1.91,5.12,4.01,1.11,2.1,1.36,4.38.75,6.83-.51,2.06-1.36,3.76-2.55,5.11l-.24.03c-.66-.27-2.23-.74-4.7-1.41Z"/>
        <path class="cls-3" d="m581.04,570.77l.47-1.87c.29-1.23.48-2.04.56-2.45.07-.34.32-1.8.76-4.37l.17-.11.81.17.08.17c-.12.69-.2,1.23-.23,1.62-.03.39,0,.69.08.88.08.2.35.37.79.52.44.15,1.06.31,1.86.48l3.84.82,7.66,1.58,3.26.67c1.26.24,2.07.37,2.45.4.37.03.63,0,.78-.08.14-.08.28-.25.42-.5.14-.25.35-.9.62-1.95l.11-.13.84.17.08.17s-.22.92-.63,2.64c-.17.72-.29,1.28-.38,1.68-.07.33-.33,1.78-.78,4.37l-.14.12-.84-.17-.05-.16c.14-.95.2-1.58.2-1.91,0-.33-.04-.55-.12-.68s-.29-.26-.62-.39c-.33-.14-1.09-.34-2.26-.6l-3.54-.73-7.67-1.58-3.26-.65c-1.27-.26-2.1-.41-2.47-.44-.38-.03-.63,0-.78.08-.14.08-.28.24-.42.49-.14.25-.34.9-.59,1.96l-.14.12-.81-.17-.11-.17Z"/>
        <path class="cls-3" d="m585.77,541.35l.37.24c.93,1.44,1.35,3.11,1.24,4.98l-.37,3.07c2.18.42,3.46.67,3.86.73l9.97,1.58,3.34.51c1.28.2,2.12.31,2.52.33.39.01.66-.03.79-.11.13-.09.26-.27.39-.54.13-.27.31-.96.55-2.07l.1-.1.85.14.12.14c-.52,2.68-.81,4.17-.86,4.5-.06.35-.25,1.86-.58,4.55l-.16.09-.85-.13-.07-.13c.1-1.01.14-1.67.13-2-.02-.33-.07-.56-.15-.69-.09-.13-.3-.27-.65-.4-.35-.14-1.12-.3-2.33-.49l-3.62-.61-9.97-1.58c-.17-.03-1.47-.18-3.9-.47-.29,1.47-.5,2.83-.62,4.08-.12,1.25-.1,1.95.06,2.09.16.14,1.1.65,2.82,1.51l-.06.58c-2.84-.53-4.75-.92-5.74-1.18.43-1.75.99-4.76,1.67-9.04.69-4.36,1.07-7.55,1.14-9.56Z"/>
        <path class="cls-3" d="m587.51,540.1l-.4-.04-.71-.07.48-4.99c2.94-1.44,5.35-2.51,7.21-3.24,1.87-.73,3.72-1.41,5.57-2.06l-11.51-7.83.27-2.73.97.09-.17,1.74c7.76,5.15,11.77,7.78,12.04,7.88.27.11.6.18,1,.22l2.48.24,2.54.22c1.01.1,1.71.14,2.11.11.39-.02.66-.08.78-.17.13-.09.24-.27.34-.52s.24-.94.4-2.06l.1-.11.86.09.13.13c0,.06-.12.96-.35,2.72-.11.75-.19,1.34-.23,1.77-.03.31-.13,1.78-.28,4.43l-.16.1-.86-.08-.07-.12c.04-.98.04-1.63,0-1.95-.04-.33-.1-.55-.18-.66-.08-.11-.28-.23-.59-.32s-.95-.2-1.92-.29l-2.91-.31-3.25-.32c-.61.18-2.14.79-4.59,1.84l-2.56,1.16c-.82.37-1.78.83-2.87,1.38-1.09.55-1.96,1.03-2.6,1.45-.65.42-1,1.18-1.07,2.31Z"/>
      </g>
    </g>
    <path class="cls-2" d="m618.06,373.99c-35.92-116.31-122.33-198.29-223.25-198.29-133.13,0-241.05,142.67-241.05,318.65,0,67.19,15.74,129.5,42.6,180.89,202.32-55.36,337.23-185,421.7-301.25Z"/>
  </g>
  <g>
    <path class="cls-7" d="m842.15,221.55h149.53c20.62,0,39.33,3.25,56.15,9.74,16.8,6.5,31.22,15.47,43.26,26.93,12.03,11.46,21.29,25.12,27.79,40.96,6.49,15.85,9.74,33.14,9.74,51.85,0,13.75-2.29,26.64-6.88,38.67-4.58,12.03-10.89,22.92-18.91,32.66-8.02,9.74-17.38,18.33-28.07,25.78-10.7,7.45-21.97,13.28-33.8,17.47l-.57,4.01,110,157.55v4.58h-88.8l-105.99-154.12h-36.09v154.12h-77.34V221.55Zm148.96,185.05c17.56,0,31.99-5.34,43.26-16.04,11.26-10.69,16.9-24.25,16.9-40.68,0-7.25-1.24-14.32-3.72-21.2-2.49-6.88-6.21-12.98-11.17-18.33-4.97-5.34-11.17-9.64-18.62-12.89-7.45-3.24-15.95-4.87-25.5-4.87h-72.76v114.01h71.62Z"/>
    <path class="cls-7" d="m1197.36,221.55h160.42c17.56,0,33.99,2.78,49.27,8.31,15.27,5.54,28.55,13.18,39.82,22.92,11.26,9.74,20.14,21.11,26.64,34.09,6.49,12.99,9.74,26.93,9.74,41.82,0,21.77-5.25,40.02-15.75,54.71-10.51,14.71-23.59,25.88-39.25,33.52v4.58c21,7.65,37.9,19.58,50.7,35.81,12.79,16.24,19.19,36.38,19.19,60.44,0,17.57-3.54,33.33-10.6,47.27-7.07,13.95-16.71,25.88-28.93,35.81-12.23,9.94-26.45,17.57-42.68,22.92-16.24,5.35-33.71,8.02-52.42,8.02h-166.15V221.55Zm154.69,167.29c17.95,0,31.8-4.87,41.54-14.61,9.74-9.74,14.61-21.29,14.61-34.66s-4.78-24.82-14.32-34.38c-9.55-9.54-22.73-14.32-39.53-14.32h-79.64v97.97h77.34Zm8.59,171.88c19.48,0,34.38-4.87,44.69-14.61,10.31-9.74,15.47-22.25,15.47-37.53s-5.25-27.97-15.76-38.1c-10.51-10.12-26.07-15.18-46.69-15.18h-83.65v105.42h85.94Z"/>
    <path class="cls-7" d="m1557.73,221.55h149.53c20.62,0,39.33,3.25,56.15,9.74,16.8,6.5,31.22,15.47,43.26,26.93,12.03,11.46,21.29,25.12,27.79,40.96,6.49,15.85,9.74,33.14,9.74,51.85,0,13.75-2.29,26.64-6.88,38.67-4.58,12.03-10.89,22.92-18.91,32.66-8.02,9.74-17.38,18.33-28.07,25.78-10.7,7.45-21.97,13.28-33.8,17.47l-.57,4.01,110,157.55v4.58h-88.8l-105.99-154.12h-36.09v154.12h-77.34V221.55Zm148.96,185.05c17.56,0,31.99-5.34,43.26-16.04,11.26-10.69,16.9-24.25,16.9-40.68,0-7.25-1.24-14.32-3.72-21.2-2.49-6.88-6.21-12.98-11.17-18.33-4.97-5.34-11.17-9.64-18.62-12.89-7.45-3.24-15.95-4.87-25.5-4.87h-72.76v114.01h71.62Z"/>
    <path class="cls-7" d="m2063.05,640.93c-24.06,0-45.93-3.92-65.6-11.75-19.68-7.82-36.38-19.19-50.13-34.09-13.75-14.9-24.45-32.94-32.08-54.14-7.64-21.2-11.46-45.35-11.46-72.47v-246.93h77.34v251.51c0,13.75,1.72,26.35,5.16,37.81,3.44,11.46,8.59,21.39,15.47,29.79,6.88,8.41,15.47,14.99,25.78,19.77,10.31,4.78,22.15,7.16,35.52,7.16s25.78-2.38,36.09-7.16c10.31-4.77,18.91-11.36,25.78-19.77,6.88-8.4,12.03-18.33,15.47-29.79,3.44-11.46,5.16-24.06,5.16-37.81v-251.51h77.35v246.93c0,25.59-3.72,48.98-11.17,70.18-7.45,21.2-18.15,39.34-32.08,54.43-13.95,15.09-30.75,26.84-50.42,35.24-19.68,8.4-41.73,12.6-66.17,12.6Z"/>
  </g>
  <g>
    <path class="cls-13" d="m854.87,772.22h-7.13v-55.53h18.92c4.81,0,8.91,1.59,12.29,4.77,3.39,3.18,5.08,7.1,5.08,11.75,0,3.83-1.25,7.23-3.76,10.2-2.51,2.97-5.67,4.87-9.5,5.7l-.15.23,15.59,22.57v.31h-8.45l-14.97-22.49h-7.91v22.49Zm0-48.7v19.54h11.48c2.89,0,5.35-.94,7.37-2.83,2.02-1.89,3.02-4.23,3.02-7.02,0-2.58-.94-4.85-2.83-6.79-1.89-1.94-4.25-2.91-7.1-2.91h-11.94Z"/>
    <path class="cls-13" d="m895.81,772.22h-7.91l20.94-55.53h8.07l20.94,55.53h-7.91l-5.35-15.05h-23.34l-5.43,15.05Zm16.91-46.77l-9.07,25.05h18.46l-9.07-25.05h-.31Z"/>
    <path class="cls-13" d="m951.5,772.22h-7.13v-55.53h7.13l19.31,33.81h.31l19.31-33.81h7.13v55.53h-7.13v-32.96l.31-9.31h-.31l-17.37,30.48h-4.19l-17.37-30.48h-.31l.31,9.31v32.96Z"/>
    <path class="cls-13" d="m1008.73,772.22v-55.53h20.09c4.39,0,8.17,1.45,11.32,4.34,3.15,2.84,4.73,6.44,4.73,10.78,0,5.48-2.51,9.33-7.52,11.56v.31c2.84.93,5.12,2.55,6.83,4.85s2.56,4.92,2.56,7.87c0,4.55-1.66,8.33-4.96,11.32-3.21,3-7.16,4.5-11.87,4.5h-21.17Zm7.13-48.7v16.98h12.95c2.53,0,4.65-.85,6.36-2.56,1.71-1.76,2.56-3.75,2.56-5.97s-.83-4.14-2.48-5.89c-1.66-1.71-3.7-2.56-6.13-2.56h-13.26Zm0,23.65v18.22h14.35c2.58,0,4.78-.9,6.59-2.71,1.76-1.81,2.64-3.96,2.64-6.44s-.9-4.55-2.71-6.36c-1.81-1.81-4.08-2.71-6.83-2.71h-14.04Z"/>
    <path class="cls-13" d="m1061.94,772.22h-7.13v-55.53h7.13v23.81h27.76v-23.81h7.13v55.53h-7.13v-25.05h-27.76v25.05Z"/>
    <path class="cls-13" d="m1111.26,772.22h-7.91l20.94-55.53h8.07l20.94,55.53h-7.91l-5.35-15.05h-23.34l-5.43,15.05Zm16.91-46.77l-9.07,25.05h18.46l-9.07-25.05h-.31Z"/>
    <path class="cls-13" d="m1166.94,772.22h-7.13v-55.53h7.13v55.53Z"/>
    <path class="cls-13" d="m1195.17,772.22v-55.53h20.09c4.39,0,8.17,1.45,11.32,4.34,3.15,2.84,4.73,6.44,4.73,10.78,0,5.48-2.51,9.33-7.52,11.56v.31c2.84.93,5.12,2.55,6.83,4.85s2.56,4.92,2.56,7.87c0,4.55-1.66,8.33-4.96,11.32-3.21,3-7.16,4.5-11.87,4.5h-21.17Zm7.13-48.7v16.98h12.95c2.53,0,4.65-.85,6.36-2.56,1.71-1.76,2.56-3.75,2.56-5.97s-.83-4.14-2.48-5.89c-1.66-1.71-3.7-2.56-6.13-2.56h-13.26Zm0,23.65v18.22h14.35c2.58,0,4.78-.9,6.59-2.71,1.76-1.81,2.64-3.96,2.64-6.44s-.9-4.55-2.71-6.36c-1.81-1.81-4.08-2.71-6.83-2.71h-14.04Z"/>
    <path class="cls-13" d="m1243.72,772.22h-7.91l20.94-55.53h8.07l20.94,55.53h-7.91l-5.35-15.05h-23.34l-5.43,15.05Zm16.91-46.77l-9.07,25.05h18.46l-9.07-25.05h-.31Z"/>
    <path class="cls-13" d="m1299.41,772.22h-7.13v-55.53h18.92c4.81,0,8.91,1.59,12.29,4.77,3.39,3.18,5.08,7.1,5.08,11.75,0,3.83-1.25,7.23-3.76,10.2-2.51,2.97-5.67,4.87-9.5,5.7l-.15.23,15.59,22.57v.31h-8.45l-14.97-22.49h-7.91v22.49Zm0-48.7v19.54h11.48c2.89,0,5.35-.94,7.37-2.83,2.02-1.89,3.02-4.23,3.02-7.02,0-2.58-.94-4.85-2.83-6.79-1.89-1.94-4.25-2.91-7.1-2.91h-11.94Z"/>
    <path class="cls-13" d="m1344.23,772.22h-7.13v-55.53h8.69l26.99,43.2h.31l-.31-10.7v-32.5h7.13v55.53h-7.45l-28.23-45.29h-.31l.31,10.7v34.59Z"/>
    <path class="cls-13" d="m1398.21,772.22h-7.13v-55.53h7.13v55.53Z"/>
    <path class="cls-13" d="m1433.57,772.22h-7.13v-55.53h18.92c4.81,0,8.91,1.59,12.29,4.77,3.39,3.18,5.08,7.1,5.08,11.75,0,3.83-1.25,7.23-3.76,10.2-2.51,2.97-5.67,4.87-9.5,5.7l-.15.23,15.59,22.57v.31h-8.45l-14.97-22.49h-7.91v22.49Zm0-48.7v19.54h11.48c2.89,0,5.35-.94,7.37-2.83,2.02-1.89,3.02-4.23,3.02-7.02,0-2.58-.94-4.85-2.83-6.79-1.89-1.94-4.25-2.91-7.1-2.91h-11.94Z"/>
    <path class="cls-13" d="m1474.52,772.22h-7.91l20.94-55.53h8.07l20.94,55.53h-7.91l-5.35-15.05h-23.34l-5.43,15.05Zm16.91-46.77l-9.07,25.05h18.46l-9.07-25.05h-.31Z"/>
    <path class="cls-13" d="m1536.64,773.46c-4.19,0-7.81-1.14-10.86-3.41s-5.2-5.43-6.44-9.46l6.75-2.79c1.76,5.89,5.27,8.84,10.55,8.84,2.89,0,5.23-1.02,7.02-3.06,1.78-2.04,2.68-4.69,2.68-7.95v-38.93h7.13v38.31c0,5.74-1.51,10.25-4.54,13.53-3.02,3.28-7.12,4.92-12.29,4.92Z"/>
    <path class="cls-13" d="m1566.19,772.22h-7.91l20.94-55.53h8.07l20.94,55.53h-7.91l-5.35-15.05h-23.34l-5.43,15.05Zm16.91-46.77l-9.07,25.05h18.46l-9.07-25.05h-.31Z"/>
    <path class="cls-13" d="m1621.88,749.73v22.49h-7.13v-55.53h18.92c4.81,0,8.89,1.6,12.25,4.81,3.41,3.21,5.12,7.11,5.12,11.71s-1.71,8.63-5.12,11.79c-3.31,3.15-7.39,4.73-12.25,4.73h-11.79Zm0-26.21v19.39h11.94c2.84,0,5.2-.96,7.06-2.87,1.91-1.91,2.87-4.19,2.87-6.83s-.96-4.83-2.87-6.75c-1.86-1.96-4.21-2.95-7.06-2.95h-11.94Z"/>
    <path class="cls-13" d="m1665.62,772.22h-7.13v-55.53h7.13v23.81h27.76v-23.81h7.13v55.53h-7.13v-25.05h-27.76v25.05Z"/>
    <path class="cls-13" d="m1714.94,772.22h-7.91l20.94-55.53h8.07l20.94,55.53h-7.91l-5.35-15.05h-23.34l-5.43,15.05Zm16.91-46.77l-9.07,25.05h18.46l-9.07-25.05h-.31Z"/>
    <path class="cls-13" d="m1777.37,723.51v48.7h-7.13v-48.7h-15.51v-6.83h38.16v6.83h-15.51Z"/>
    <path class="cls-13" d="m1836.7,773.46c-6.15,0-11.12-2.02-14.89-6.05-3.78-3.98-5.66-9.25-5.66-15.82v-34.9h7.14v35.21c0,4.55,1.19,8.14,3.57,10.78,2.38,2.64,5.66,3.96,9.85,3.96s7.47-1.32,9.85-3.96c2.38-2.64,3.57-6.23,3.57-10.78v-35.21h7.14v34.9c0,6.72-1.86,12.05-5.58,15.98-3.72,3.93-8.71,5.89-14.97,5.89Z"/>
    <path class="cls-13" d="m1874.31,772.22h-7.13v-55.53h8.69l26.99,43.2h.31l-.31-10.7v-32.5h7.13v55.53h-7.45l-28.23-45.29h-.31l.31,10.7v34.59Z"/>
    <path class="cls-13" d="m1928.29,772.22h-7.13v-55.53h7.13v55.53Z"/>
    <path class="cls-13" d="m1960.63,772.22h-7.45l-19.54-55.53h7.91l15.2,45.06h.31l15.82-45.06h7.91l-20.16,55.53Z"/>
    <path class="cls-13" d="m2019.73,716.69v6.83h-25.28v17.6h22.8v6.67h-22.8v17.6h25.28v6.83h-32.42v-55.53h32.42Z"/>
    <path class="cls-13" d="m2036.48,772.22h-7.13v-55.53h18.92c4.81,0,8.91,1.59,12.29,4.77,3.39,3.18,5.08,7.1,5.08,11.75,0,3.83-1.25,7.23-3.76,10.2-2.51,2.97-5.67,4.87-9.5,5.7l-.15.23,15.59,22.57v.31h-8.45l-14.97-22.49h-7.91v22.49Zm0-48.7v19.54h11.48c2.89,0,5.35-.94,7.37-2.83,2.02-1.89,3.02-4.23,3.02-7.02,0-2.58-.94-4.85-2.83-6.79-1.89-1.94-4.25-2.91-7.1-2.91h-11.94Z"/>
    <path class="cls-13" d="m2108.45,757.41c0,4.86-1.78,8.76-5.35,11.71-3.62,2.9-8.01,4.34-13.18,4.34-4.6,0-8.66-1.34-12.18-4.03-3.52-2.69-5.95-6.36-7.29-11.01l6.83-2.79c.46,1.66,1.11,3.15,1.94,4.5.83,1.35,1.8,2.5,2.91,3.45,1.11.96,2.34,1.71,3.68,2.25,1.34.54,2.77.81,4.27.81,3.26,0,5.92-.84,7.99-2.52,2.07-1.68,3.1-3.92,3.1-6.71,0-2.33-.85-4.32-2.56-5.97-1.6-1.6-4.6-3.15-9-4.65-4.45-1.6-7.21-2.69-8.3-3.26-5.89-3-8.84-7.42-8.84-13.26,0-4.08,1.63-7.57,4.89-10.47,3.31-2.89,7.37-4.34,12.18-4.34,4.24,0,7.91,1.09,11.01,3.26,3.1,2.12,5.17,4.78,6.2,7.99l-6.67,2.79c-.62-2.07-1.85-3.79-3.68-5.16-1.83-1.37-4.07-2.06-6.71-2.06-2.79,0-5.15.78-7.06,2.33-1.91,1.45-2.87,3.33-2.87,5.66,0,1.91.75,3.57,2.25,4.96,1.65,1.4,5.25,3.05,10.78,4.96,5.63,1.91,9.66,4.25,12.06,7.02,2.4,2.77,3.61,6.17,3.61,10.2Z"/>
    <path class="cls-13" d="m2124.19,772.22h-7.13v-55.53h7.13v55.53Z"/>
    <path class="cls-13" d="m2154.28,723.51v48.7h-7.13v-48.7h-15.51v-6.83h38.16v6.83h-15.51Z"/>
    <path class="cls-13" d="m2198.41,746.39v25.83h-7.13v-25.83l-18.69-29.7h8.38l13.73,22.57h.31l13.42-22.57h8.38l-18.38,29.7Z"/>
  </g>
  <g>
    <path class="cls-5" d="m2111.97,199.61s-15.33-15.33-39.85-3.07-64.37,6.13-91.96-12.26c-27.59-18.39-58.24-3.07-70.5,12.26,0,0-6.13-70.5,76.63-82.76,82.76-12.26,125.68,33.72,125.68,33.72,0,0,3.07-64.37-67.44-79.7,0,0,84.3-16.86,118.02,13.79,33.72,30.65,12.26,91.96,12.26,91.96,0,0,12.26,0,21.46-15.33,9.2-15.33,49.05-36.78,95.03-15.33,45.98,21.46,39.85,64.37,39.85,64.37,0,0-82.76-36.78-116.48,3.07,0,0,98.09-15.33,128.75,42.92,30.65,58.24-30.65,147.14-30.65,147.14,0,0-3.07-45.98-42.92-61.31s-52.11-58.24-52.11-76.63c0-18.39-15.33-30.65-24.52-30.65s-27.59,9.2-24.52,39.85c3.07,30.65,9.2,131.81-67.44,131.81s-73.57,27.59-73.57,27.59c0,0,0-30.65-9.2-55.18-9.2-24.52-27.59-85.83,9.2-134.88,36.78-49.05,88.9-6.13,84.3-41.38Z"/>
    <path class="cls-8" d="m2121.17,172.02s-30.65-33.72-82.76-33.72c0,0,30.65,0,67.44,27.59,0,0-24.52-6.13-36.78,0,0,0,27.59,0,52.11,6.13Z"/>
    <path class="cls-8" d="m2228.45,230.26s45.98-9.2,79.7,33.72c0,0-33.72-30.65-79.7-33.72Z"/>
    <path class="cls-8" d="m2228.45,236.39s21.46,6.13,33.72,30.65c0,0-18.39-21.46-33.72-30.65Z"/>
    <path class="cls-8" d="m2118.1,242.52c-5.02,6.75-10.6,12.9-16.27,18.97-2.86,3.01-5.73,6.01-8.67,8.94-2.89,2.99-5.92,5.81-8.78,8.87,1.9-3.76,4.4-7.19,7-10.46,2.6-3.28,5.39-6.39,8.22-9.45,5.76-6.03,11.77-11.82,18.5-16.87Z"/>
    <path class="cls-8" d="m2127.3,251.72c-4.84,10.81-10.07,21.38-15.41,31.87-5.31,10.51-10.82,20.9-16.28,31.31l-16.59,31.09c-5.51,10.38-11.04,20.71-16.09,31.41,2.65-11.58,7.06-22.67,11.78-33.49,4.73-10.85,9.98-21.44,15.49-31.88,5.59-10.4,11.35-20.7,17.53-30.76,6.14-10.08,12.54-20.01,19.57-29.55Z"/>
    <path class="cls-8" d="m2136.3,257.67c1.27,8.73,1.61,17.48,1.73,26.22.02,8.75-.19,17.5-1.34,26.25-1.28-8.74-1.62-17.48-1.73-26.22-.02-8.74.2-17.48,1.34-26.25Z"/>
    <path class="cls-16" d="m2139.56,211.87s-18.39-39.85-9.2-79.7c9.2-39.85,33.72-42.92,39.85-39.85,6.13,3.07,7.66,13.79,1.53,19.92-6.13,6.13-15.33,3.07-15.33,0,0,0-36.78,24.52-16.86,99.62Z"/>
    <path class="cls-16" d="m2150.29,216.47s27.59-116.48,95.03-116.48c0,0,0-21.46,15.33-30.65,15.33-9.2,24.52,3.07,24.52,9.2s-15.33,15.33-21.46,3.07c0,0-12.26,3.07-12.26,18.39,0,0,3.07,0,6.13,3.07,3.07,3.07-6.13,12.26-15.33,12.26s-55.18,15.33-91.96,101.16"/>
    <path class="cls-16" d="m2210.06,168.95s-6.13,30.65-61.31,61.31c0,0,49.05-9.2,70.5-55.18,12.26-27.59-12.26-30.65-15.33-24.52-3.07,6.13-6.13,15.33,6.13,18.39Z"/>
  </g>
</svg>